SplineFontDB: 3.2
FontName: Guezueq
FullName: Guezueq
FamilyName: Guezueq
Weight: Regular
Copyright: Copyright (c) 2023, Robin
UComments: "2023-2-1: Created with FontForge (http://fontforge.org)"
Version: 001.000
ItalicAngle: 0
UnderlinePosition: -100
UnderlineWidth: 50
Ascent: 800
Descent: 200
InvalidEm: 0
LayerCount: 2
Layer: 0 0 "Back" 1
Layer: 1 0 "Fore" 0
XUID: [1021 618 -23699139 256238]
FSType: 0
OS2Version: 0
OS2_WeightWidthSlopeOnly: 0
OS2_UseTypoMetrics: 1
CreationTime: 1675284542
ModificationTime: 1675557422
PfmFamily: 17
TTFWeight: 400
TTFWidth: 5
LineGap: 90
VLineGap: 0
OS2TypoAscent: 0
OS2TypoAOffset: 1
OS2TypoDescent: 0
OS2TypoDOffset: 1
OS2TypoLinegap: 90
OS2WinAscent: 0
OS2WinAOffset: 1
OS2WinDescent: 0
OS2WinDOffset: 1
HheadAscent: 0
HheadAOffset: 1
HheadDescent: 0
HheadDOffset: 1
OS2Vendor: 'PfEd'
OS2UnicodeRanges: 00000001.10000000.00000000.00000000
Lookup: 1 0 0 "Lengthen cartouche start" { "Lengthen cartouche start"  } []
Lookup: 1 0 0 "Lower tone mark" { "Lower tone mark"  } []
Lookup: 1 0 0 "Raise tone mark" { "Raise tone mark"  } []
Lookup: 1 0 0 "Move rising tone mark to left" { "Move rising tone mark to left"  } []
Lookup: 1 0 0 "Hiatus to hiatus-diphthong" { "Hiatus to hiatus-diphthong"  } []
Lookup: 2 0 0 "Delete diphthong" { "Delete diphthong"  } []
Lookup: 1 0 0 "Add cartouche line" { "Add cartouche line"  } []
Lookup: 5 0 0 "Form hiatus-diphthong ligatures" { "Form hiatus-diphthong ligatures"  } ['calt' ('DFLT' <'dflt' > ) ]
Lookup: 5 8 0 "Connect cartouche starts" { "Connect cartouche starts"  } ['rclt' ('DFLT' <'dflt' > ) ]
Lookup: 6 8 0 "Connect cartouche medials" { "Connect cartouche medials"  } ['rclt' ('DFLT' <'dflt' > ) ]
Lookup: 5 0 0 "Move rising tone mark before word at start of cartouches" { "Move rising tone mark before word at start of cartouches"  } ['calt' ('DFLT' <'dflt' > ) ]
Lookup: 5 0 0 "Lower tone marks inside cartouches" { "Lower tone marks inside cartouches"  } ['calt' ('DFLT' <'dflt' > ) ]

StartChar: mamei
Encoding: 2 988848 2
Width: 1166
GlyphClass: 2
Flags: W
HStem: -116.662 83.332<916.664 999.998> 50.0039 166.666<333.334 416.666 666.666 749.998> 50.0039 83.332<250 333.334 416.666 666.666 749.998 999.998> 216.67 249.998<416.666 500 749.998 833.332> 383.336 83.332<83.334 166.668> 466.668 83.334<166.668 416.666 500 749.998 833.332 1083.33>
VStem: 83.334 83.334<383.336 466.668> 333.334 83.332<133.336 216.67> 416.666 83.334<216.67 466.668> 666.666 83.332<133.336 216.67> 749.998 83.334<216.67 466.668> 916.664 83.334<-116.662 -33.3301> 999.998 83.332<-33.3301 50.0039> 1083.33 83.334<216.67 466.668>
AnchorPoint: "top_center" 291.667 550 basechar 0
AnchorPoint: "bottom_right" 1041.67 50 basechar 0
AnchorPoint: "top_right" 375 550 basechar 0
AnchorPoint: "top_left" 208.333 550 basechar 0
LayerCount: 2
Fore
SplineSet
166.66796875 550.001953125 m 1x8680
 416.666015625 550.001953125 l 1x8680
 416.666015625 466.66796875 l 1x9280
 166.66796875 466.66796875 l 1x8a80
 166.66796875 550.001953125 l 1x8680
416.666015625 466.66796875 m 1x9280
 500 466.66796875 l 1
 500 216.669921875 l 1x9280
 416.666015625 216.669921875 l 1xc3
 416.666015625 466.66796875 l 1x9280
500 466.66796875 m 1
 500 550.001953125 l 1
 749.998046875 550.001953125 l 1x86a0
 749.998046875 466.66796875 l 1x92a0
 500 466.66796875 l 1
749.998046875 466.66796875 m 1x9220
 833.33203125 466.66796875 l 1
 833.33203125 216.669921875 l 1x9220
 749.998046875 216.669921875 l 1xc240
 749.998046875 466.66796875 l 1x9220
833.33203125 466.66796875 m 1
 833.33203125 550.001953125 l 1
 1083.33007812 550.001953125 l 1
 1083.33007812 466.66796875 l 1x8624
 833.33203125 466.66796875 l 1
1083.33007812 466.66796875 m 1
 1166.6640625 466.66796875 l 1
 1166.6640625 355.557291667 1166.6640625 244.446614583 1166.6640625 133.3359375 c 1
 1083.33007812 133.3359375 l 1xa604
 1083.33007812 77.7805989583 1083.33007813 22.2252604167 1083.33007812 -33.330078125 c 1xa608
 999.998046875 -33.330078125 l 1xa610
 999.998046875 50.00390625 l 1
 250 50.00390625 l 1
 250 133.3359375 l 1
 333.333984375 133.3359375 l 1xa708
 333.333984375 216.669921875 l 1
 416.666015625 216.669921875 l 1xc308
 416.666015625 133.3359375 l 1
 666.666015625 133.3359375 l 1xa348
 666.666015625 216.669921875 l 1
 749.998046875 216.669921875 l 1xc348
 749.998046875 133.3359375 l 1
 999.998046875 133.3359375 l 1
 999.998046875 216.669921875 l 1xb348
 1083.33007812 216.669921875 l 1xb204
 1083.33007812 466.66796875 l 1
999.998046875 -33.330078125 m 1x8210
 999.998046875 -116.662109375 l 1
 916.6640625 -116.662109375 l 1
 916.6640625 -33.330078125 l 1
 999.998046875 -33.330078125 l 1x8210
166.66796875 466.66796875 m 1x8a
 166.66796875 383.3359375 l 1
 83.333984375 383.3359375 l 1
 83.333984375 466.66796875 l 1
 166.66796875 466.66796875 l 1x8a
EndSplineSet
Validated: 524293
Substitution2: "Add cartouche line" mamei_c
EndChar

StartChar: mamei_coda
Encoding: 3 988849 3
Width: 833
GlyphClass: 2
Flags: W
HStem: 50.0039 83.332<249.998 333.332 416.664 666.664> 133.336 83.334<666.664 749.996> 216.67 249.998<416.664 499.998 749.996 833.33> 383.336 83.332<83.332 166.666> 466.668 83.334<166.666 416.664 499.998 749.996>
VStem: 83.332 83.334<383.336 466.668> 333.332 83.332<133.336 216.67> 416.664 83.334<216.67 466.668> 666.664 83.332<133.336 216.67> 749.996 83.334<216.67 466.668>
AnchorPoint: "top_center" 291.667 550 basechar 0
AnchorPoint: "bottom_right" 625 50 basechar 0
AnchorPoint: "top_right" 375 550 basechar 0
AnchorPoint: "top_left" 208.333 550 basechar 0
LayerCount: 2
Fore
SplineSet
166.666015625 550.001953125 m 1x0d
 416.6640625 550.001953125 l 1x0d
 416.6640625 466.66796875 l 1x25
 166.666015625 466.66796875 l 1x15
 166.666015625 550.001953125 l 1x0d
416.6640625 466.66796875 m 1x25
 499.998046875 466.66796875 l 1
 499.998046875 216.669921875 l 1x25
 416.6640625 216.669921875 l 1x26
 416.6640625 466.66796875 l 1x25
499.998046875 466.66796875 m 1
 499.998046875 550.001953125 l 1
 749.99609375 550.001953125 l 1x0d40
 749.99609375 466.66796875 l 1x2540
 499.998046875 466.66796875 l 1
749.99609375 466.66796875 m 1x2440
 833.330078125 466.66796875 l 1
 833.330078125 216.669921875 l 1x2440
 749.99609375 216.669921875 l 1x4480
 749.99609375 466.66796875 l 1x2440
749.99609375 216.669921875 m 1x4480
 749.99609375 133.3359375 l 1x4480
 666.6640625 133.3359375 l 1x8480
 666.6640625 216.669921875 l 1
 749.99609375 216.669921875 l 1x4480
666.6640625 133.3359375 m 1xa680
 666.6640625 50.00390625 l 1
 249.998046875 50.00390625 l 1
 249.998046875 133.3359375 l 1
 333.33203125 133.3359375 l 1
 333.33203125 216.669921875 l 1
 416.6640625 216.669921875 l 1
 416.6640625 133.3359375 l 1
 666.6640625 133.3359375 l 1xa680
166.666015625 466.66796875 m 1x14
 166.666015625 383.3359375 l 1
 83.33203125 383.3359375 l 1
 83.33203125 466.66796875 l 1
 166.666015625 466.66796875 l 1x14
EndSplineSet
Validated: 524293
Substitution2: "Add cartouche line" mamei_coda_c
EndChar

StartChar: bubue
Encoding: 4 988850 4
Width: 500
GlyphClass: 2
Flags: W
HStem: 50.0039 83.332<249.998 333.332> 133.336 83.334<333.332 416.664> 383.336 83.332<83.332 166.666> 466.668 83.334<166.666 416.664>
VStem: 83.332 83.334<383.336 466.668> 249.998 83.334<50.0039 133.336> 333.332 83.332<133.336 216.67> 416.664 83.334<216.67 466.668>
AnchorPoint: "top_center" 291.667 550 basechar 0
AnchorPoint: "bottom_right" 291.667 50 basechar 0
AnchorPoint: "top_right" 375 550 basechar 0
AnchorPoint: "top_left" 208.333 550 basechar 0
LayerCount: 2
Fore
SplineSet
166.666015625 550.001953125 m 5x19
 416.6640625 550.001953125 l 5
 416.6640625 466.66796875 l 5x19
 166.666015625 466.66796875 l 5x29
 166.666015625 550.001953125 l 5x19
416.6640625 466.66796875 m 5
 499.998046875 466.66796875 l 5
 499.998046875 216.669921875 l 5x59
 416.6640625 216.669921875 l 5x5a
 416.6640625 466.66796875 l 5
416.6640625 216.669921875 m 5x4a
 416.6640625 133.3359375 l 5x4a
 333.33203125 133.3359375 l 5x8c
 333.33203125 216.669921875 l 5
 416.6640625 216.669921875 l 5x4a
333.33203125 133.3359375 m 5x8c
 333.33203125 50.00390625 l 5
 249.998046875 50.00390625 l 5
 249.998046875 133.3359375 l 5
 333.33203125 133.3359375 l 5x8c
166.666015625 466.66796875 m 5x28
 166.666015625 383.3359375 l 5
 83.33203125 383.3359375 l 5
 83.33203125 466.66796875 l 5
 166.666015625 466.66796875 l 5x28
EndSplineSet
Validated: 524293
Substitution2: "Add cartouche line" bubue_c
EndChar

StartChar: pipoq
Encoding: 5 988851 5
Width: 500
GlyphClass: 2
Flags: W
HStem: -116.662 83.332<166.666 249.998> -33.3301 83.334<249.998 333.332> 133.336 83.334<166.666 249.998> 216.67 249.998<83.332 166.666 416.664 499.998> 466.668 83.334<166.666 416.664>
VStem: 83.332 83.334<216.67 466.668> 166.666 83.332<-116.662 -33.3301 133.336 216.67> 249.998 83.334<-33.3301 50.0039> 333.332 83.332<50.0039 216.67> 416.664 83.334<216.67 466.668>
AnchorPoint: "top_center" 291.667 550 basechar 0
AnchorPoint: "bottom_right" 375 50 basechar 0
AnchorPoint: "top_right" 375 550 basechar 0
AnchorPoint: "top_left" 208.333 550 basechar 0
LayerCount: 2
Fore
SplineSet
166.666015625 550.001953125 m 5x0a
 416.6640625 550.001953125 l 5x0a40
 416.6640625 466.66796875 l 5
 166.666015625 466.66796875 l 5x1440
 166.666015625 550.001953125 l 5x0a
416.6640625 466.66796875 m 5x1040
 499.998046875 466.66796875 l 5
 499.998046875 216.669921875 l 5x1040
 416.6640625 216.669921875 l 5x1080
 416.6640625 466.66796875 l 5x1040
416.6640625 216.669921875 m 5x5080
 416.6640625 161.114583333 416.6640625 105.559244792 416.6640625 50.00390625 c 5x5080
 333.33203125 50.00390625 l 5x51
 333.33203125 105.559244792 333.33203125 161.114583333 333.33203125 216.669921875 c 5
 416.6640625 216.669921875 l 5x5080
333.33203125 50.00390625 m 5x41
 333.33203125 -33.330078125 l 5x41
 249.998046875 -33.330078125 l 5x82
 249.998046875 50.00390625 l 5
 333.33203125 50.00390625 l 5x41
249.998046875 -33.330078125 m 5x82
 249.998046875 -116.662109375 l 5
 166.666015625 -116.662109375 l 5
 166.666015625 -33.330078125 l 5
 249.998046875 -33.330078125 l 5x82
166.666015625 466.66796875 m 5x14
 166.666015625 216.669921875 l 5x24
 83.33203125 216.669921875 l 5
 83.33203125 466.66796875 l 5
 166.666015625 466.66796875 l 5x14
166.666015625 216.669921875 m 5
 249.998046875 216.669921875 l 5
 249.998046875 133.3359375 l 5
 166.666015625 133.3359375 l 5x22
 166.666015625 216.669921875 l 5
EndSplineSet
Validated: 524293
Substitution2: "Add cartouche line" pipoq_c
EndChar

StartChar: fofuaq
Encoding: 6 988852 6
Width: 500
GlyphClass: 2
Flags: W
HStem: -116.662 83.332<166.666 249.998> -33.3301 83.334<249.998 333.332> 383.336 83.332<83.332 166.666> 466.668 83.334<166.666 416.664>
VStem: 83.332 83.334<383.336 466.668> 166.666 83.332<-116.662 -33.3301> 249.998 83.334<-33.3301 50.0039> 333.332 83.332<50.0039 216.67> 416.664 83.334<216.67 466.668>
AnchorPoint: "top_center" 291.667 550 basechar 0
AnchorPoint: "bottom_right" 375 50 basechar 0
AnchorPoint: "top_right" 375 550 basechar 0
AnchorPoint: "top_left" 208.333 550 basechar 0
LayerCount: 2
Fore
SplineSet
166.666015625 550.001953125 m 1x14
 416.6640625 550.001953125 l 1
 416.6640625 466.66796875 l 1x1480
 166.666015625 466.66796875 l 1x2880
 166.666015625 550.001953125 l 1x14
416.6640625 466.66796875 m 1
 499.998046875 466.66796875 l 1
 499.998046875 216.669921875 l 1x1080
 416.6640625 216.669921875 l 1x11
 416.6640625 466.66796875 l 1
416.6640625 216.669921875 m 1x41
 416.6640625 161.114583333 416.6640625 105.559244792 416.6640625 50.00390625 c 1x41
 333.33203125 50.00390625 l 1x42
 333.33203125 105.559244792 333.33203125 161.114583333 333.33203125 216.669921875 c 1
 416.6640625 216.669921875 l 1x41
333.33203125 50.00390625 m 1x42
 333.33203125 -33.330078125 l 1x42
 249.998046875 -33.330078125 l 1x84
 249.998046875 50.00390625 l 1
 333.33203125 50.00390625 l 1x42
249.998046875 -33.330078125 m 1x84
 249.998046875 -116.662109375 l 1
 166.666015625 -116.662109375 l 1
 166.666015625 -33.330078125 l 1
 249.998046875 -33.330078125 l 1x84
166.666015625 466.66796875 m 1x28
 166.666015625 383.3359375 l 1
 83.33203125 383.3359375 l 1
 83.33203125 466.66796875 l 1
 166.666015625 466.66796875 l 1x28
EndSplineSet
Validated: 524293
Substitution2: "Add cartouche line" fofuaq_c
EndChar

StartChar: nanaq
Encoding: 7 988853 7
Width: 500
GlyphClass: 2
Flags: W
HStem: 50.0039 83.332<83.332 333.332> 133.336 83.334<333.332 416.664> 383.336 83.332<83.332 166.666> 466.668 83.334<166.666 333.332> 550.002 83.332<416.664 499.998> 633.334 83.334<499.998 583.33>
VStem: 0 83.332<133.336 383.336> 83.332 83.334<383.336 466.668> 333.332 83.332<133.336 216.67> 416.664 83.334<216.67 466.668> 499.998 83.332<633.334 716.668>
AnchorPoint: "top_center" 291.667 550 basechar 0
AnchorPoint: "bottom_right" 291.667 50 basechar 0
AnchorPoint: "top_right" 291.667 550 basechar 0
AnchorPoint: "top_left" 208.333 550 basechar 0
LayerCount: 2
Fore
SplineSet
499.998046875 716.66796875 m 1x0420
 583.330078125 716.66796875 l 1
 583.330078125 633.333984375 l 1x0420
 499.998046875 633.333984375 l 1x0820
 499.998046875 716.66796875 l 1x0420
499.998046875 633.333984375 m 1x09a0
 499.998046875 550.001953125 l 1x09a0
 416.6640625 550.001953125 l 1x0840
 416.6640625 466.66796875 l 1x1040
 166.666015625 466.66796875 l 1x2140
 166.666015625 550.001953125 l 1
 222.221354167 550.001953125 277.776692708 550.001953125 333.33203125 550.001953125 c 1
 333.33203125 633.333984375 l 1x1580
 388.887369792 633.333984375 444.442708333 633.333984375 499.998046875 633.333984375 c 1x09a0
416.6640625 466.66796875 m 1x5040
 499.998046875 466.66796875 l 1
 499.998046875 216.669921875 l 1x5040
 416.6640625 216.669921875 l 1x5080
 416.6640625 466.66796875 l 1x5040
416.6640625 216.669921875 m 1x4080
 416.6640625 133.3359375 l 1x4080
 333.33203125 133.3359375 l 1x8080
 333.33203125 216.669921875 l 1
 416.6640625 216.669921875 l 1x4080
333.33203125 133.3359375 m 1x8280
 333.33203125 50.00390625 l 1
 83.33203125 50.00390625 l 1x8180
 83.33203125 133.3359375 l 1
 333.33203125 133.3359375 l 1x8280
83.33203125 133.3359375 m 1xa2
 0 133.3359375 l 1x42
 0 383.3359375 l 1
 83.33203125 383.3359375 l 1
 83.33203125 133.3359375 l 1xa2
83.33203125 383.3359375 m 1x22
 83.33203125 466.66796875 l 1
 166.666015625 466.66796875 l 1
 166.666015625 383.3359375 l 1x21
 83.33203125 383.3359375 l 1x22
EndSplineSet
Validated: 524293
Substitution2: "Add cartouche line" nanaq_c
EndChar

StartChar: dudeo
Encoding: 8 988854 8
Width: 500
GlyphClass: 2
Flags: W
HStem: 50.0039 83.332<249.998 333.332> 133.336 83.334<333.332 416.664> 300.002 83.334<166.666 333.332> 383.336 83.332<83.332 166.666> 466.668 83.334<166.666 416.664>
VStem: 83.332 83.334<383.336 466.668> 166.666 166.666<300.002 383.336> 249.998 83.334<50.0039 133.336> 333.332 83.332<133.336 216.67> 416.664 83.334<216.67 466.668>
AnchorPoint: "top_center" 291.667 550 basechar 0
AnchorPoint: "bottom_right" 291.667 50 basechar 0
AnchorPoint: "top_right" 375 550 basechar 0
AnchorPoint: "top_left" 208.333 550 basechar 0
LayerCount: 2
Fore
SplineSet
166.666015625 550.001953125 m 5x0a
 416.6640625 550.001953125 l 5
 416.6640625 466.66796875 l 5x0a40
 166.666015625 466.66796875 l 5x1440
 166.666015625 550.001953125 l 5x0a
416.6640625 466.66796875 m 5
 499.998046875 466.66796875 l 5
 499.998046875 216.669921875 l 5x4840
 416.6640625 216.669921875 l 5x4880
 416.6640625 466.66796875 l 5
416.6640625 216.669921875 m 5x4080
 416.6640625 133.3359375 l 5x4080
 333.33203125 133.3359375 l 5x81
 333.33203125 216.669921875 l 5
 416.6640625 216.669921875 l 5x4080
333.33203125 133.3359375 m 5x81
 333.33203125 50.00390625 l 5
 249.998046875 50.00390625 l 5
 249.998046875 133.3359375 l 5
 333.33203125 133.3359375 l 5x81
166.666015625 466.66796875 m 5x14
 166.666015625 383.3359375 l 5x24
 83.33203125 383.3359375 l 5
 83.33203125 466.66796875 l 5
 166.666015625 466.66796875 l 5x14
166.666015625 383.3359375 m 5
 222.221354167 383.3359375 277.776692708 383.3359375 333.33203125 383.3359375 c 5
 333.33203125 300.001953125 l 5
 277.776692708 300.001953125 222.221354167 300.001953125 166.666015625 300.001953125 c 5x22
 166.666015625 383.3359375 l 5
EndSplineSet
Validated: 524293
Substitution2: "Add cartouche line" dudeo_c
EndChar

StartChar: titieq
Encoding: 9 988855 9
Width: 583
GlyphClass: 2
Flags: W
HStem: 50.0039 83.332<83.332 333.332> 133.336 83.334<333.332 416.664> 383.336 83.332<83.332 166.666> 466.668 83.334<166.666 333.332> 550.002 83.332<666.664 749.996> 633.334 83.334<499.998 666.664>
VStem: 0 83.332<133.336 383.336> 83.332 83.334<383.336 466.668> 166.666 166.666<466.668 550.002> 333.332 83.332<133.336 216.67> 416.664 83.334<216.67 633.334> 499.998 166.666<633.334 716.668> 666.664 83.332<550.002 633.334>
AnchorPoint: "top_center" 291.667 550 basechar 0
AnchorPoint: "bottom_right" 291.667 50 basechar 0
AnchorPoint: "top_right" 291.667 550 basechar 0
AnchorPoint: "top_left" 208.333 550 basechar 0
LayerCount: 2
Fore
SplineSet
499.998046875 716.66796875 m 1x0410
 555.553385417 716.66796875 611.108723958 716.66796875 666.6640625 716.66796875 c 1x0410
 666.6640625 633.333984375 l 1x0810
 611.108723958 633.333984375 555.553385417 633.333984375 499.998046875 633.333984375 c 1x0420
 499.998046875 716.66796875 l 1x0410
666.6640625 633.333984375 m 1x0810
 749.99609375 633.333984375 l 1
 749.99609375 550.001953125 l 1
 666.6640625 550.001953125 l 1x0808
 666.6640625 633.333984375 l 1x0810
499.998046875 633.333984375 m 1x4420
 499.998046875 216.669921875 l 1x4420
 416.6640625 216.669921875 l 1x4440
 416.6640625 633.333984375 l 1
 499.998046875 633.333984375 l 1x4420
416.6640625 216.669921875 m 1x4040
 416.6640625 133.3359375 l 1x4040
 333.33203125 133.3359375 l 1x8040
 333.33203125 216.669921875 l 1
 416.6640625 216.669921875 l 1x4040
333.33203125 133.3359375 m 1x8240
 333.33203125 50.00390625 l 1
 83.33203125 50.00390625 l 1x8140
 83.33203125 133.3359375 l 1
 333.33203125 133.3359375 l 1x8240
83.33203125 133.3359375 m 1xa2
 0 133.3359375 l 1x42
 0 383.3359375 l 1
 83.33203125 383.3359375 l 1
 83.33203125 133.3359375 l 1xa2
83.33203125 383.3359375 m 1x22
 83.33203125 466.66796875 l 1
 166.666015625 466.66796875 l 1
 166.666015625 383.3359375 l 1x21
 83.33203125 383.3359375 l 1x22
166.666015625 466.66796875 m 1
 166.666015625 550.001953125 l 1
 222.221354167 550.001953125 277.776692708 550.001953125 333.33203125 550.001953125 c 1
 333.33203125 466.66796875 l 1x1080
 277.776692708 466.66796875 222.221354167 466.66796875 166.666015625 466.66796875 c 1
EndSplineSet
Validated: 524293
Substitution2: "Add cartouche line" titieq_c
EndChar

StartChar: zozeo
Encoding: 10 988856 10
Width: 500
GlyphClass: 2
Flags: W
HStem: -116.662 83.332<166.666 249.998> -33.3301 83.334<249.998 333.332> 133.336 83.334<249.998 333.332> 216.67 83.332<166.666 249.998> 383.336 83.332<83.332 166.666> 466.668 83.334<166.666 416.664>
VStem: 83.332 83.334<-33.3301 216.67 383.336 466.668> 166.666 83.332<-116.662 -33.3301 216.67 300.002> 249.998 83.334<-33.3301 50.0039> 333.332 83.332<50.0039 133.336> 416.664 83.334<216.67 466.668>
AnchorPoint: "top_center" 291.667 550 basechar 0
AnchorPoint: "top_right" 375 550 basechar 0
AnchorPoint: "top_left" 208.333 550 basechar 0
AnchorPoint: "bottom_right" 375 50 basechar 0
LayerCount: 2
Fore
SplineSet
166.666015625 550.001953125 m 5x05
 416.6640625 550.001953125 l 5
 416.6640625 466.66796875 l 5x0520
 166.666015625 466.66796875 l 5x0a20
 166.666015625 550.001953125 l 5x05
416.6640625 466.66796875 m 5
 499.998046875 466.66796875 l 5
 499.998046875 216.669921875 l 5
 416.6640625 216.669921875 l 5x1420
 416.6640625 466.66796875 l 5
416.6640625 216.669921875 m 5
 416.6640625 161.114583333 416.6640625 105.559244792 416.6640625 50.00390625 c 5x5040
 333.33203125 50.00390625 l 5x5080
 333.33203125 133.3359375 l 5x6040
 249.998046875 133.3359375 l 5x6080
 249.998046875 216.669921875 l 5x61
 305.553385417 216.669921875 361.108723958 216.669921875 416.6640625 216.669921875 c 5
333.33203125 50.00390625 m 5x4080
 333.33203125 -33.330078125 l 5x4080
 249.998046875 -33.330078125 l 5x81
 249.998046875 50.00390625 l 5
 333.33203125 50.00390625 l 5x4080
249.998046875 -33.330078125 m 5x81
 249.998046875 -116.662109375 l 5
 166.666015625 -116.662109375 l 5x81
 166.666015625 -33.330078125 l 5x82
 249.998046875 -33.330078125 l 5x81
166.666015625 -33.330078125 m 5x92
 83.33203125 -33.330078125 l 5x42
 83.33203125 216.669921875 l 5
 166.666015625 216.669921875 l 5
 166.666015625 -33.330078125 l 5x92
166.666015625 216.669921875 m 5x12
 166.666015625 300.001953125 l 5
 249.998046875 300.001953125 l 5x11
 249.998046875 216.669921875 l 5x21
 166.666015625 216.669921875 l 5x12
166.666015625 466.66796875 m 5x0a
 166.666015625 383.3359375 l 5
 83.33203125 383.3359375 l 5
 83.33203125 466.66796875 l 5
 166.666015625 466.66796875 l 5x0a
EndSplineSet
Validated: 524293
Substitution2: "Add cartouche line" zozeo_c
EndChar

StartChar: cecoa
Encoding: 11 988857 11
Width: 500
GlyphClass: 2
Flags: W
HStem: 50.0039 83.332<83.332 333.332> 133.336 83.334<333.332 416.664> 383.336 83.332<83.332 166.666> 466.668 83.334<166.666 333.332>
VStem: 0 83.332<133.336 383.336> 83.332 83.334<383.336 466.668> 166.666 166.666<466.668 550.002> 333.332 83.332<133.336 216.67>
AnchorPoint: "top_center" 291.667 550 basechar 0
AnchorPoint: "top_right" 291.667 550 basechar 0
AnchorPoint: "top_left" 208.333 550 basechar 0
AnchorPoint: "bottom_right" 291.667 50 basechar 0
LayerCount: 2
Fore
SplineSet
166.666015625 550.001953125 m 5x12
 222.221354167 550.001953125 277.776692708 550.001953125 333.33203125 550.001953125 c 5
 333.33203125 466.66796875 l 5x12
 277.776692708 466.66796875 222.221354167 466.66796875 166.666015625 466.66796875 c 5x24
 166.666015625 550.001953125 l 5x12
166.666015625 466.66796875 m 5x24
 166.666015625 383.3359375 l 5x24
 83.33203125 383.3359375 l 5x28
 83.33203125 466.66796875 l 5
 166.666015625 466.66796875 l 5x24
83.33203125 383.3359375 m 5x68
 83.33203125 133.3359375 l 5xa8
 0 133.3359375 l 5
 0 383.3359375 l 5
 83.33203125 383.3359375 l 5x68
83.33203125 133.3359375 m 5
 333.33203125 133.3359375 l 5
 333.33203125 50.00390625 l 5
 83.33203125 50.00390625 l 5x85
 83.33203125 133.3359375 l 5
333.33203125 133.3359375 m 5
 333.33203125 216.669921875 l 5
 416.6640625 216.669921875 l 5
 416.6640625 133.3359375 l 5x41
 333.33203125 133.3359375 l 5
EndSplineSet
Validated: 524293
Substitution2: "Add cartouche line" cecoa_c
EndChar

StartChar: saqseoq
Encoding: 12 988858 12
Width: 500
GlyphClass: 2
Flags: W
HStem: 50.0039 83.332<83.332 333.332> 133.336 83.333<333.332 416.665> 383.335 83.333<83.333 166.666> 466.668 83.334<166.666 416.664>
VStem: 0 83.332<133.336 383.336> 83.333 83.333<383.335 466.668> 333.332 83.333<133.336 216.669> 416.664 83.334<216.67 466.668>
AnchorPoint: "top_center" 291.667 550 basechar 0
AnchorPoint: "top_right" 375 550 basechar 0
AnchorPoint: "top_left" 208.333 550 basechar 0
AnchorPoint: "bottom_right" 291.667 50 basechar 0
LayerCount: 2
Fore
SplineSet
0 383.3359375 m 5x4c
 83.33203125 383.3359375 l 5
 83.33203125 133.3359375 l 5x8c
 0 133.3359375 l 5
 0 383.3359375 l 5x4c
83.3330078125 383.334960938 m 5x2c
 83.3330078125 466.66796875 l 5
 166.666015625 466.66796875 l 5
 166.666015625 383.334960938 l 5
 83.3330078125 383.334960938 l 5x2c
83.33203125 133.3359375 m 5x8e
 333.33203125 133.3359375 l 5
 333.33203125 50.00390625 l 5
 83.33203125 50.00390625 l 5
 83.33203125 133.3359375 l 5x8e
166.666015625 550.001953125 m 5x1d
 416.6640625 550.001953125 l 5
 416.6640625 466.66796875 l 5x1d
 166.666015625 466.66796875 l 5x2d
 166.666015625 550.001953125 l 5x1d
333.33203125 133.3359375 m 5x8e
 333.33203125 216.668945312 l 5
 416.665039062 216.668945312 l 5
 416.665039062 133.3359375 l 5x4e
 333.33203125 133.3359375 l 5x8e
416.6640625 466.66796875 m 5x1d
 499.998046875 466.66796875 l 5
 499.998046875 216.669921875 l 5
 416.6640625 216.669921875 l 5
 416.6640625 466.66796875 l 5x1d
EndSplineSet
Validated: 524293
Substitution2: "Add cartouche line" saqseoq_c
EndChar

StartChar: rairua
Encoding: 13 988859 13
Width: 833
GlyphClass: 2
Flags: W
HStem: -116.662 83.332<583.33 666.664> 50.0039 83.332<249.998 333.332 416.664 666.664> 383.336 83.332<83.332 166.666> 466.668 83.334<166.666 416.664 499.998 749.996>
VStem: 83.332 83.334<383.336 466.668> 333.332 83.332<133.336 216.67> 416.664 83.334<216.67 466.668> 583.33 83.334<-116.662 -33.3301> 666.664 83.332<-33.3301 50.0039> 749.996 83.334<216.67 466.668>
AnchorPoint: "top_center" 291.667 550 basechar 0
AnchorPoint: "top_left" 208.333 550 basechar 0
AnchorPoint: "top_right" 375 550 basechar 0
AnchorPoint: "bottom_right" 708.333 50 basechar 0
LayerCount: 2
Fore
SplineSet
166.666015625 550.001953125 m 5xda
 416.6640625 550.001953125 l 5
 416.6640625 466.66796875 l 5xda
 166.666015625 466.66796875 l 5xea
 166.666015625 550.001953125 l 5xda
416.6640625 466.66796875 m 5
 499.998046875 466.66796875 l 5
 499.998046875 216.669921875 l 5xda
 416.6640625 216.669921875 l 5xdc
 416.6640625 466.66796875 l 5
499.998046875 466.66796875 m 5
 499.998046875 550.001953125 l 5
 749.99609375 550.001953125 l 5
 749.99609375 466.66796875 l 5xda40
 499.998046875 466.66796875 l 5
749.99609375 466.66796875 m 5
 833.330078125 466.66796875 l 5
 833.330078125 355.557291667 833.330078125 244.446614583 833.330078125 133.3359375 c 5
 749.99609375 133.3359375 l 5xd840
 749.99609375 77.7805989583 749.99609375 22.2252604167 749.99609375 -33.330078125 c 5xd880
 666.6640625 -33.330078125 l 5xd9
 666.6640625 50.00390625 l 5
 249.998046875 50.00390625 l 5
 249.998046875 133.3359375 l 5
 333.33203125 133.3359375 l 5
 333.33203125 216.669921875 l 5
 416.6640625 216.669921875 l 5
 416.6640625 133.3359375 l 5
 666.6640625 133.3359375 l 5
 666.6640625 216.669921875 l 5xdc80
 749.99609375 216.669921875 l 5
 749.99609375 466.66796875 l 5
666.6640625 -33.330078125 m 5xc9
 666.6640625 -116.662109375 l 5
 583.330078125 -116.662109375 l 5
 583.330078125 -33.330078125 l 5
 666.6640625 -33.330078125 l 5xc9
166.666015625 466.66796875 m 5xe8
 166.666015625 383.3359375 l 5
 83.33203125 383.3359375 l 5
 83.33203125 466.66796875 l 5
 166.666015625 466.66796875 l 5xe8
EndSplineSet
Validated: 524293
Substitution2: "Add cartouche line" rairua_c
EndChar

StartChar: laoliq
Encoding: 14 988860 14
Width: 833
GlyphClass: 2
Flags: W
HStem: -116.662 83.332<416.664 499.998> 50.0039 166.666<333.332 416.664 666.664 749.996> 50.0039 83.332<249.998 333.332 416.664 666.664> 383.336 83.332<83.332 166.666> 466.668 83.334<166.666 416.664 499.998 749.996>
VStem: 83.332 83.334<383.336 466.668> 333.332 83.332<133.336 216.67> 416.664 83.334<-116.662 -33.3301 216.67 466.668> 666.664 166.666<133.336 216.67> 749.996 83.334<216.67 466.668>
AnchorPoint: "top_center" 291.667 550 basechar 0
AnchorPoint: "top_left" 208.333 550 basechar 0
AnchorPoint: "top_right" 375 550 basechar 0
AnchorPoint: "bottom_right" 708.333 50 basechar 0
LayerCount: 2
Fore
SplineSet
166.666015625 550.001953125 m 1x8d
 416.6640625 550.001953125 l 1
 416.6640625 466.66796875 l 1x8d
 166.666015625 466.66796875 l 1x95
 166.666015625 550.001953125 l 1x8d
416.6640625 466.66796875 m 1
 499.998046875 466.66796875 l 1
 499.998046875 216.669921875 l 1xcd
 416.6640625 216.669921875 l 1xce
 416.6640625 466.66796875 l 1
499.998046875 466.66796875 m 1
 499.998046875 550.001953125 l 1
 749.99609375 550.001953125 l 1
 749.99609375 466.66796875 l 1x8d40
 499.998046875 466.66796875 l 1
749.99609375 466.66796875 m 1
 833.330078125 466.66796875 l 1xcc40
 833.330078125 355.557291667 833.330078125 244.446614583 833.330078125 133.3359375 c 1xac80
 749.99609375 133.3359375 l 1xac40
 749.99609375 50.00390625 l 1xc440
 583.330078125 50.00390625 416.6640625 50.00390625 249.998046875 50.00390625 c 1
 249.998046875 133.3359375 l 1
 333.33203125 133.3359375 l 1xa640
 333.33203125 216.669921875 l 1
 416.6640625 216.669921875 l 1xc640
 416.6640625 133.3359375 l 1
 666.6640625 133.3359375 l 1xa680
 666.6640625 216.669921875 l 1xc680
 749.99609375 216.669921875 l 1xc440
 749.99609375 466.66796875 l 1
166.666015625 466.66796875 m 1x94
 166.666015625 383.3359375 l 1
 83.33203125 383.3359375 l 1
 83.33203125 466.66796875 l 1
 166.666015625 466.66796875 l 1x94
416.6640625 -33.330078125 m 1x85
 499.998046875 -33.330078125 l 1
 499.998046875 -116.662109375 l 1
 416.6640625 -116.662109375 l 1
 416.6640625 -33.330078125 l 1x85
EndSplineSet
Validated: 524293
Substitution2: "Add cartouche line" laoliq_c
EndChar

StartChar: nhanhoq
Encoding: 15 988861 15
Width: 500
GlyphClass: 2
Flags: W
HStem: 50.0039 83.332<249.998 333.332> 133.336 83.334<166.666 249.998 333.332 416.664> 216.67 83.332<249.998 333.332> 383.336 83.332<83.332 166.666> 466.668 83.334<166.666 416.664>
VStem: 83.332 83.334<383.336 466.668> 166.666 83.332<133.336 216.67> 249.998 83.334<50.0039 133.336 216.67 300.002> 333.332 83.332<133.336 216.67> 416.664 83.334<216.67 466.668>
AnchorPoint: "top_center" 291.667 550 basechar 0
AnchorPoint: "top_left" 208.333 550 basechar 0
AnchorPoint: "top_right" 375 550 basechar 0
AnchorPoint: "bottom_right" 291.667 50 basechar 0
LayerCount: 2
Fore
SplineSet
166.666015625 550.001953125 m 1x0a
 416.6640625 550.001953125 l 1
 416.6640625 466.66796875 l 1x0a40
 166.666015625 466.66796875 l 1x1440
 166.666015625 550.001953125 l 1x0a
416.6640625 466.66796875 m 1
 499.998046875 466.66796875 l 1
 499.998046875 216.669921875 l 1x2840
 416.6640625 216.669921875 l 1x4080
 416.6640625 466.66796875 l 1
416.6640625 216.669921875 m 1x4080
 416.6640625 133.3359375 l 1x4080
 333.33203125 133.3359375 l 1x81
 333.33203125 216.669921875 l 1x41
 416.6640625 216.669921875 l 1x4080
333.33203125 133.3359375 m 1x81
 333.33203125 50.00390625 l 1
 249.998046875 50.00390625 l 1x81
 249.998046875 133.3359375 l 1x82
 333.33203125 133.3359375 l 1x81
249.998046875 133.3359375 m 1x82
 166.666015625 133.3359375 l 1
 166.666015625 216.669921875 l 1
 249.998046875 216.669921875 l 1x42
 249.998046875 133.3359375 l 1x82
249.998046875 216.669921875 m 1
 249.998046875 300.001953125 l 1
 333.33203125 300.001953125 l 1x21
 333.33203125 216.669921875 l 1x41
 249.998046875 216.669921875 l 1
166.666015625 466.66796875 m 1x14
 166.666015625 383.3359375 l 1
 83.33203125 383.3359375 l 1
 83.33203125 466.66796875 l 1
 166.666015625 466.66796875 l 1x14
EndSplineSet
Validated: 524293
Substitution2: "Add cartouche line" nhanhoq_c
EndChar

StartChar: jujuo
Encoding: 16 988862 16
Width: 666
GlyphClass: 2
Flags: W
HStem: 50.0039 83.332<416.664 499.998> 133.336 83.334<499.998 583.33> 383.336 83.332<83.332 166.666 333.332 416.664> 466.668 83.334<166.666 333.332 416.664 583.33>
VStem: 83.332 83.334<383.336 466.668> 166.666 166.666<466.668 550.002> 333.332 83.332<383.336 466.668> 416.664 83.334<50.0039 133.336> 499.998 83.332<133.336 216.67> 583.33 83.334<216.67 466.668>
AnchorPoint: "top_center" 291.667 550 basechar 0
AnchorPoint: "top_right" 291.667 550 basechar 0
AnchorPoint: "top_left" 208.333 550 basechar 0
AnchorPoint: "bottom_right" 458.333 50 basechar 0
LayerCount: 2
Fore
SplineSet
166.666015625 550.001953125 m 1x14
 222.221354167 550.001953125 277.776692708 550.001953125 333.33203125 550.001953125 c 1x14
 333.33203125 466.66796875 l 1x24
 277.776692708 466.66796875 222.221354167 466.66796875 166.666015625 466.66796875 c 1x28
 166.666015625 550.001953125 l 1x14
333.33203125 466.66796875 m 1x24
 416.6640625 466.66796875 l 1
 416.6640625 383.3359375 l 1
 333.33203125 383.3359375 l 1x22
 333.33203125 466.66796875 l 1x24
416.6640625 466.66796875 m 1
 416.6640625 550.001953125 l 1
 472.219401042 550.001953125 527.774739583 550.001953125 583.330078125 550.001953125 c 1
 583.330078125 466.66796875 l 1x1140
 527.774739583 466.66796875 472.219401042 466.66796875 416.6640625 466.66796875 c 1
583.330078125 466.66796875 m 1
 666.6640625 466.66796875 l 1
 666.6640625 216.669921875 l 1x5040
 583.330078125 216.669921875 l 1x5080
 583.330078125 466.66796875 l 1
583.330078125 216.669921875 m 1x4080
 583.330078125 133.3359375 l 1x4080
 499.998046875 133.3359375 l 1x81
 499.998046875 216.669921875 l 1
 583.330078125 216.669921875 l 1x4080
499.998046875 133.3359375 m 1x81
 499.998046875 50.00390625 l 1
 416.6640625 50.00390625 l 1
 416.6640625 133.3359375 l 1
 499.998046875 133.3359375 l 1x81
166.666015625 466.66796875 m 1x28
 166.666015625 383.3359375 l 1
 83.33203125 383.3359375 l 1
 83.33203125 466.66796875 l 1
 166.666015625 466.66796875 l 1x28
EndSplineSet
Validated: 524293
Substitution2: "Add cartouche line" jujuo_c
EndChar

StartChar: chichao
Encoding: 17 988863 17
Width: 500
GlyphClass: 2
Flags: W
HStem: 50.0039 83.332<83.332 333.332> 133.336 83.334<333.332 416.664> 383.336 83.332<83.332 166.666> 466.668 83.334<166.666 416.664> 550.002 83.332<416.664 499.998>
VStem: 0 83.332<133.336 383.336> 83.332 83.334<383.336 466.668> 333.332 83.332<133.336 216.67> 416.664 83.334<550.002 633.334>
AnchorPoint: "top_center" 291.667 550 basechar 0
AnchorPoint: "top_right" 375 550 basechar 0
AnchorPoint: "top_left" 208.333 550 basechar 0
AnchorPoint: "bottom_right" 291.667 50 basechar 0
LayerCount: 2
Fore
SplineSet
416.6640625 633.333984375 m 1x0880
 499.998046875 633.333984375 l 1
 499.998046875 550.001953125 l 1x0880
 416.6640625 550.001953125 l 1x1080
 416.6640625 633.333984375 l 1x0880
416.6640625 550.001953125 m 1x1280
 416.6640625 466.66796875 l 1x1280
 166.666015625 466.66796875 l 1x2280
 166.666015625 550.001953125 l 1
 416.6640625 550.001953125 l 1x1280
166.666015625 466.66796875 m 1x22
 166.666015625 383.3359375 l 1x22
 83.33203125 383.3359375 l 1x24
 83.33203125 466.66796875 l 1
 166.666015625 466.66796875 l 1x22
83.33203125 383.3359375 m 1x64
 83.33203125 133.3359375 l 1xa4
 0 133.3359375 l 1
 0 383.3359375 l 1
 83.33203125 383.3359375 l 1x64
83.33203125 133.3359375 m 1
 333.33203125 133.3359375 l 1
 333.33203125 50.00390625 l 1
 83.33203125 50.00390625 l 1x83
 83.33203125 133.3359375 l 1
333.33203125 133.3359375 m 1
 333.33203125 216.669921875 l 1
 416.6640625 216.669921875 l 1
 416.6640625 133.3359375 l 1x41
 333.33203125 133.3359375 l 1
EndSplineSet
Validated: 524293
Substitution2: "Add cartouche line" chichao_c
EndChar

StartChar: shoshia
Encoding: 18 988864 18
Width: 500
GlyphClass: 2
Flags: W
HStem: -199.996 83.334<249.998 333.332> 50.0039 83.332<83.332 249.998> 133.336 83.334<249.998 333.332> 383.336 83.332<83.332 166.666> 466.668 83.334<166.666 416.664> 550.002 83.332<416.664 499.998>
VStem: 0 83.332<133.336 383.336> 83.332 83.334<383.336 466.668> 249.998 83.334<-199.996 -116.662> 333.332 83.332<-116.662 133.336 216.67 300.002> 416.664 83.334<550.002 633.334>
AnchorPoint: "top_center" 291.667 550 basechar 0
AnchorPoint: "top_right" 375 550 basechar 0
AnchorPoint: "top_left" 208.333 550 basechar 0
AnchorPoint: "bottom_right" 375 50 basechar 0
LayerCount: 2
Fore
SplineSet
416.6640625 633.333984375 m 1x8420
 499.998046875 633.333984375 l 1
 499.998046875 550.001953125 l 1x8420
 416.6640625 550.001953125 l 1x8820
 416.6640625 633.333984375 l 1x8420
416.6640625 550.001953125 m 1x8920
 416.6640625 466.66796875 l 1x8920
 166.666015625 466.66796875 l 1x9120
 166.666015625 550.001953125 l 1
 416.6640625 550.001953125 l 1x8920
166.666015625 466.66796875 m 1x91
 166.666015625 383.3359375 l 1x91
 83.33203125 383.3359375 l 1x92
 83.33203125 466.66796875 l 1
 166.666015625 466.66796875 l 1x91
83.33203125 383.3359375 m 1xb2
 83.33203125 133.3359375 l 1xd2
 0 133.3359375 l 1
 0 383.3359375 l 1
 83.33203125 383.3359375 l 1xb2
83.33203125 133.3359375 m 1
 138.887369792 133.3359375 194.442708333 133.3359375 249.998046875 133.3359375 c 1
 249.998046875 50.00390625 l 1
 194.442708333 50.00390625 138.887369792 50.00390625 83.33203125 50.00390625 c 1xc180
 83.33203125 133.3359375 l 1
249.998046875 133.3359375 m 1
 249.998046875 216.669921875 l 1xa080
 333.33203125 216.669921875 l 1
 333.33203125 300.001953125 l 1
 416.6640625 300.001953125 l 1
 416.6640625 -116.662109375 l 1xa040
 333.33203125 -116.662109375 l 1xa080
 333.33203125 133.3359375 l 1xa040
 249.998046875 133.3359375 l 1
333.33203125 -116.662109375 m 1
 333.33203125 -199.99609375 l 1
 249.998046875 -199.99609375 l 1
 249.998046875 -116.662109375 l 1
 333.33203125 -116.662109375 l 1
EndSplineSet
Validated: 524293
Substitution2: "Add cartouche line" shoshia_c
EndChar

StartChar: veva
Encoding: 19 988865 19
Width: 416
GlyphClass: 2
Flags: W
HStem: 50.0039 83.332<166.666 249.998> 133.336 83.334<249.998 333.332> 466.668 166.666<83.332 166.666> 466.668 83.334<166.666 333.332> 633.334 83.334<166.666 249.998>
VStem: 83.332 83.334<550.002 633.334> 166.666 83.332<50.0039 133.336 633.334 716.668> 249.998 83.334<133.336 216.67> 333.332 83.332<216.67 466.668>
AnchorPoint: "top_center" 291.667 550 basechar 0
AnchorPoint: "top_left" 291.667 550 basechar 0
AnchorPoint: "top_right" 291.667 550 basechar 0
AnchorPoint: "bottom_right" 208.333 50 basechar 0
LayerCount: 2
Fore
SplineSet
166.666015625 716.66796875 m 1x0a
 249.998046875 716.66796875 l 1
 249.998046875 633.333984375 l 1x0a
 166.666015625 633.333984375 l 1x24
 166.666015625 716.66796875 l 1x0a
166.666015625 633.333984375 m 1x2480
 166.666015625 550.001953125 l 1
 222.221354167 550.001953125 277.776692708 550.001953125 333.33203125 550.001953125 c 1
 333.33203125 466.66796875 l 1x1480
 83.33203125 466.66796875 l 1
 83.33203125 522.223307292 83.33203125 577.778645833 83.33203125 633.333984375 c 1
 166.666015625 633.333984375 l 1x2480
333.33203125 466.66796875 m 1
 416.6640625 466.66796875 l 1
 416.6640625 216.669921875 l 1x5080
 333.33203125 216.669921875 l 1x51
 333.33203125 466.66796875 l 1
333.33203125 216.669921875 m 1x41
 333.33203125 133.3359375 l 1x41
 249.998046875 133.3359375 l 1x82
 249.998046875 216.669921875 l 1
 333.33203125 216.669921875 l 1x41
249.998046875 133.3359375 m 1x82
 249.998046875 50.00390625 l 1
 166.666015625 50.00390625 l 1
 166.666015625 133.3359375 l 1
 249.998046875 133.3359375 l 1x82
EndSplineSet
Validated: 524293
Substitution2: "Add cartouche line" veva_c
EndChar

StartChar: aqaq
Encoding: 20 988866 20
Width: 500
GlyphClass: 2
Flags: W
HStem: -199.996 83.334<249.998 333.332> 50.0039 83.332<83.332 249.998> 133.336 83.334<249.998 333.332> 383.336 83.332<83.332 166.666> 466.668 83.334<166.666 249.998>
VStem: 0 83.332<133.336 383.336> 83.332 83.334<383.336 466.668> 166.666 83.332<466.668 550.002> 249.998 83.334<-199.996 -116.662> 333.332 83.332<-116.662 133.336 216.67 300.002>
AnchorPoint: "top_center" 208.333 550 basechar 0
AnchorPoint: "top_left" 208.333 550 basechar 0
AnchorPoint: "top_right" 208.333 550 basechar 0
AnchorPoint: "bottom_right" 375 50 basechar 0
LayerCount: 2
Fore
SplineSet
166.666015625 550.001953125 m 1x89
 249.998046875 550.001953125 l 1
 249.998046875 466.66796875 l 1x89
 166.666015625 466.66796875 l 1x92
 166.666015625 550.001953125 l 1x89
166.666015625 466.66796875 m 1x92
 166.666015625 383.3359375 l 1x92
 83.33203125 383.3359375 l 1x94
 83.33203125 466.66796875 l 1
 166.666015625 466.66796875 l 1x92
83.33203125 383.3359375 m 1xb4
 83.33203125 133.3359375 l 1xd4
 0 133.3359375 l 1
 0 383.3359375 l 1
 83.33203125 383.3359375 l 1xb4
83.33203125 133.3359375 m 1
 138.887369792 133.3359375 194.442708333 133.3359375 249.998046875 133.3359375 c 1
 249.998046875 50.00390625 l 1
 194.442708333 50.00390625 138.887369792 50.00390625 83.33203125 50.00390625 c 1xc280
 83.33203125 133.3359375 l 1
249.998046875 133.3359375 m 1
 249.998046875 216.669921875 l 1xa080
 333.33203125 216.669921875 l 1
 333.33203125 300.001953125 l 1
 416.6640625 300.001953125 l 1
 416.6640625 -116.662109375 l 1xa040
 333.33203125 -116.662109375 l 1xa080
 333.33203125 133.3359375 l 1xa040
 249.998046875 133.3359375 l 1
333.33203125 -116.662109375 m 1
 333.33203125 -199.99609375 l 1
 249.998046875 -199.99609375 l 1
 249.998046875 -116.662109375 l 1
 333.33203125 -116.662109375 l 1
EndSplineSet
Validated: 524293
Substitution2: "Add cartouche line" aqaq_c
EndChar

StartChar: gugui
Encoding: 21 988867 21
Width: 666
GlyphClass: 2
Flags: W
HStem: 50.0039 83.332<83.332 249.998 333.332 499.998> 133.336 83.334<249.998 333.332 499.998 583.33> 383.336 83.332<83.332 166.666> 466.668 83.334<166.666 249.998>
VStem: 0 83.332<133.336 383.336> 83.332 83.334<383.336 466.668> 166.666 83.332<466.668 550.002> 249.998 83.334<133.336 216.67> 499.998 83.332<133.336 216.67>
AnchorPoint: "top_center" 208.333 550 basechar 0
AnchorPoint: "top_left" 208.333 550 basechar 0
AnchorPoint: "top_right" 208.333 550 basechar 0
AnchorPoint: "bottom_right" 458.333 50 basechar 0
LayerCount: 2
Fore
SplineSet
166.666015625 550.001953125 m 1x1280
 249.998046875 550.001953125 l 1
 249.998046875 466.66796875 l 1x1280
 166.666015625 466.66796875 l 1x2480
 166.666015625 550.001953125 l 1x1280
166.666015625 466.66796875 m 1x2480
 166.666015625 383.3359375 l 1x2480
 83.33203125 383.3359375 l 1x2880
 83.33203125 466.66796875 l 1
 166.666015625 466.66796875 l 1x2480
83.33203125 383.3359375 m 1x6880
 83.33203125 133.3359375 l 1xa880
 0 133.3359375 l 1
 0 383.3359375 l 1
 83.33203125 383.3359375 l 1x6880
83.33203125 133.3359375 m 1
 138.887369792 133.3359375 194.442708333 133.3359375 249.998046875 133.3359375 c 1
 249.998046875 50.00390625 l 1
 194.442708333 50.00390625 138.887369792 50.00390625 83.33203125 50.00390625 c 1x8580
 83.33203125 133.3359375 l 1
249.998046875 133.3359375 m 1
 249.998046875 216.669921875 l 1
 333.33203125 216.669921875 l 1x4180
 333.33203125 133.3359375 l 1
 249.998046875 133.3359375 l 1
333.33203125 133.3359375 m 1x8180
 388.887369792 133.3359375 444.442708333 133.3359375 499.998046875 133.3359375 c 1
 499.998046875 50.00390625 l 1
 444.442708333 50.00390625 388.887369792 50.00390625 333.33203125 50.00390625 c 1
 333.33203125 133.3359375 l 1x8180
499.998046875 133.3359375 m 1
 499.998046875 216.669921875 l 1
 583.330078125 216.669921875 l 1
 583.330078125 133.3359375 l 1x4080
 499.998046875 133.3359375 l 1
EndSplineSet
Validated: 524293
Substitution2: "Add cartouche line" gugui_c
EndChar

StartChar: kikue
Encoding: 22 988868 22
Width: 500
GlyphClass: 2
Flags: W
HStem: -116.662 83.332<166.666 249.998> 50.0039 83.332<83.332 333.332> 133.336 83.334<333.332 416.664> 383.336 83.332<83.332 166.666> 466.668 83.334<166.666 333.332>
VStem: 0 83.332<133.336 383.336> 83.332 83.334<383.336 466.668> 166.666 166.666<466.668 550.002> 166.666 83.332<-116.662 -33.3301> 333.332 83.332<133.336 216.67>
AnchorPoint: "top_center" 291.667 550 basechar 0
AnchorPoint: "top_right" 291.667 550 basechar 0
AnchorPoint: "top_left" 208.333 550 basechar 0
AnchorPoint: "bottom_right" 291.667 50 basechar 0
LayerCount: 2
Fore
SplineSet
166.666015625 550.001953125 m 1x89
 222.221354167 550.001953125 277.776692708 550.001953125 333.33203125 550.001953125 c 1
 333.33203125 466.66796875 l 1x89
 277.776692708 466.66796875 222.221354167 466.66796875 166.666015625 466.66796875 c 1x92
 166.666015625 550.001953125 l 1x89
166.666015625 466.66796875 m 1x92
 166.666015625 383.3359375 l 1x92
 83.33203125 383.3359375 l 1x94
 83.33203125 466.66796875 l 1
 166.666015625 466.66796875 l 1x92
83.33203125 383.3359375 m 1xb4
 83.33203125 133.3359375 l 1xd4
 0 133.3359375 l 1
 0 383.3359375 l 1
 83.33203125 383.3359375 l 1xb4
83.33203125 133.3359375 m 1
 333.33203125 133.3359375 l 1
 333.33203125 50.00390625 l 1
 83.33203125 50.00390625 l 1xc240
 83.33203125 133.3359375 l 1
333.33203125 133.3359375 m 1
 333.33203125 216.669921875 l 1
 416.6640625 216.669921875 l 1
 416.6640625 133.3359375 l 1xa040
 333.33203125 133.3359375 l 1
166.666015625 -33.330078125 m 1x8080
 249.998046875 -33.330078125 l 1
 249.998046875 -116.662109375 l 1
 166.666015625 -116.662109375 l 1
 166.666015625 -33.330078125 l 1x8080
EndSplineSet
Validated: 524293
Substitution2: "Add cartouche line" kikue_c
EndChar

StartChar: oaomo
Encoding: 23 988869 23
Width: 250
GlyphClass: 2
Flags: W
HStem: 300.002 83.333<83.333 166.666>
VStem: 83.333 83.333<300.002 383.335>
AnchorPoint: "top_center" 125 383.333 basechar 0
AnchorPoint: "top_left" 125 383.333 basechar 0
AnchorPoint: "top_right" 125 383.333 basechar 0
AnchorPoint: "bottom_right" 125 50 basechar 0
LayerCount: 2
Fore
SplineSet
83.3330078125 300.001953125 m 1
 83.3330078125 383.334960938 l 1
 166.666015625 383.334960938 l 1
 166.666015625 300.001953125 l 1
 83.3330078125 300.001953125 l 1
EndSplineSet
Validated: 524289
Substitution2: "Add cartouche line" oaomo_c
EndChar

StartChar: hehaq
Encoding: 24 988870 24
Width: 500
Flags: W
HStem: -116.662 83.332<166.666 249.998> -33.3301 83.334<249.998 333.332> 133.336 83.334<249.998 333.332> 216.67 83.332<166.666 249.998> 383.336 83.332<83.332 166.666> 466.668 83.334<166.666 416.664>
VStem: 83.332 83.334<383.336 466.668> 166.666 83.332<-116.662 -33.3301 216.67 300.002> 249.998 83.334<-33.3301 50.0039> 333.332 83.332<50.0039 133.336> 416.664 83.334<216.67 466.668>
AnchorPoint: "top_center" 291.667 550 basechar 0
AnchorPoint: "top_left" 208.333 550 basechar 0
AnchorPoint: "top_right" 375 550 basechar 0
AnchorPoint: "bottom_right" 375 50 basechar 0
LayerCount: 2
Fore
SplineSet
166.666015625 550.001953125 m 1x05
 416.6640625 550.001953125 l 1
 416.6640625 466.66796875 l 1x0520
 166.666015625 466.66796875 l 1x0a20
 166.666015625 550.001953125 l 1x05
416.6640625 466.66796875 m 1
 499.998046875 466.66796875 l 1
 499.998046875 216.669921875 l 1
 416.6640625 216.669921875 l 1x1420
 416.6640625 466.66796875 l 1
416.6640625 216.669921875 m 1
 416.6640625 161.114583333 416.6640625 105.559244792 416.6640625 50.00390625 c 1x5040
 333.33203125 50.00390625 l 1x5080
 333.33203125 133.3359375 l 1x6040
 249.998046875 133.3359375 l 1x6080
 249.998046875 216.669921875 l 1x61
 305.553385417 216.669921875 361.108723958 216.669921875 416.6640625 216.669921875 c 1
333.33203125 50.00390625 m 1x4080
 333.33203125 -33.330078125 l 1x4080
 249.998046875 -33.330078125 l 1x81
 249.998046875 50.00390625 l 1
 333.33203125 50.00390625 l 1x4080
249.998046875 -33.330078125 m 1x81
 249.998046875 -116.662109375 l 1
 166.666015625 -116.662109375 l 1
 166.666015625 -33.330078125 l 1
 249.998046875 -33.330078125 l 1x81
249.998046875 216.669921875 m 1x21
 166.666015625 216.669921875 l 1
 166.666015625 300.001953125 l 1
 249.998046875 300.001953125 l 1x11
 249.998046875 216.669921875 l 1x21
166.666015625 466.66796875 m 1x0a
 166.666015625 383.3359375 l 1
 83.33203125 383.3359375 l 1
 83.33203125 466.66796875 l 1
 166.666015625 466.66796875 l 1x0a
EndSplineSet
Validated: 524293
Substitution2: "Add cartouche line" hehaq_c
EndChar

StartChar: rising_tone
Encoding: 25 988874 25
Width: 0
GlyphClass: 4
Flags: W
HStem: 633.334 83.333<166.666 249.999> 716.667 83.333<249.999 333.332>
VStem: 166.666 83.333<633.334 716.667> 249.999 83.333<716.667 800>
AnchorPoint: "top_left" 208.333 550 mark 0
LayerCount: 2
Fore
SplineSet
166.666015625 633.333984375 m 1xa0
 166.666015625 716.666992188 l 1
 249.999023438 716.666992188 l 1
 249.999023438 633.333984375 l 1
 166.666015625 633.333984375 l 1xa0
249.999023438 716.666992188 m 1
 249.999023438 800 l 1
 333.33203125 800 l 1
 333.33203125 716.666992188 l 1x50
 249.999023438 716.666992188 l 1
EndSplineSet
Validated: 524293
Substitution2: "Move rising tone mark to left" rising_tone_left
Substitution2: "Lower tone mark" rising_tone_low
EndChar

StartChar: low_glottal_tone
Encoding: 26 988875 26
Width: 0
GlyphClass: 4
Flags: W
HStem: 633.334 83.334<249.998 499.998>
VStem: 166.666 83.332<550.002 633.334>
AnchorPoint: "top_left" 208.333 550 mark 0
LayerCount: 2
Fore
SplineSet
249.998046875 716.66796875 m 1
 499.998046875 716.66796875 l 1
 499.998046875 633.333984375 l 1
 249.998046875 633.333984375 l 1
 249.998046875 716.66796875 l 1
249.998046875 633.333984375 m 1
 249.998046875 550.001953125 l 1
 208.33203125 510.001953125 l 1
 166.666015625 550.001953125 l 1
 166.666015625 633.333984375 l 1
 249.998046875 633.333984375 l 1
EndSplineSet
Validated: 524293
Substitution2: "Raise tone mark" low_glottal_tone_high
EndChar

StartChar: rising_falling_tone
Encoding: 27 988876 27
Width: 0
GlyphClass: 4
Flags: W
HStem: 633.334 83.334<83.332 166.666> 716.668 83.332<166.666 333.332>
VStem: 83.332 83.334<633.334 716.668> 333.332 83.332<550.002 716.668>
AnchorPoint: "top_right" 375 550 mark 0
LayerCount: 2
Fore
SplineSet
166.666015625 800 m 1x70
 222.221354167 800 277.776692708 800 333.33203125 800 c 1
 333.33203125 716.66796875 l 1x70
 277.776692708 716.66796875 222.221354167 716.66796875 166.666015625 716.66796875 c 1xb0
 166.666015625 800 l 1x70
333.33203125 716.66796875 m 1
 416.6640625 716.66796875 l 1
 416.6640625 661.112630208 416.6640625 605.557291667 416.6640625 550.001953125 c 1
 374.998046875 510.001953125 l 1
 333.33203125 550.001953125 l 1
 333.33203125 605.557291667 333.33203125 661.112630208 333.33203125 716.66796875 c 1
166.666015625 716.66796875 m 1xb0
 166.666015625 633.333984375 l 1
 83.33203125 633.333984375 l 1
 83.33203125 716.66796875 l 1
 166.666015625 716.66796875 l 1xb0
EndSplineSet
Validated: 524293
Substitution2: "Lower tone mark" rising_falling_tone_low
EndChar

StartChar: hiatus
Encoding: 28 988877 28
Width: 0
GlyphClass: 4
Flags: W
HStem: -199.996 83.334<333.332 416.664> -116.662 83.332<83.332 333.332>
VStem: 333.332 83.332<-199.996 -116.662>
AnchorPoint: "bottom_right" 125 50 mark 0
LayerCount: 2
Fore
SplineSet
83.33203125 -33.330078125 m 1x60
 333.33203125 -33.330078125 l 1x60
 333.33203125 -116.662109375 l 1xa0
 83.33203125 -116.662109375 l 1
 83.33203125 -33.330078125 l 1x60
333.33203125 -116.662109375 m 1xa0
 416.6640625 -116.662109375 l 1
 416.6640625 -199.99609375 l 1
 333.33203125 -199.99609375 l 1
 333.33203125 -116.662109375 l 1xa0
EndSplineSet
Validated: 524293
Substitution2: "Hiatus to hiatus-diphthong" hiatus_diphthong
EndChar

StartChar: diphthong
Encoding: 29 988878 29
Width: 0
GlyphClass: 4
Flags: W
HStem: -199.996 166.666<249.998 333.332> -116.662 83.332<83.332 249.998 333.332 416.664>
VStem: 249.998 83.334<-199.996 -116.662>
AnchorPoint: "bottom_right" 125 50 mark 0
LayerCount: 2
Fore
SplineSet
83.33203125 -33.330078125 m 1x60
 194.442708333 -33.330078125 305.553385417 -33.330078125 416.6640625 -33.330078125 c 1
 416.6640625 -116.662109375 l 1
 333.33203125 -116.662109375 l 1x60
 333.33203125 -199.99609375 l 1
 249.998046875 -199.99609375 l 1xa0
 249.998046875 -116.662109375 l 1
 194.442708333 -116.662109375 138.887369792 -116.662109375 83.33203125 -116.662109375 c 1
 83.33203125 -33.330078125 l 1x60
EndSplineSet
Validated: 524289
MultipleSubs2: "Delete diphthong" 
EndChar

StartChar: prefix
Encoding: 30 988882 30
Width: 166
GlyphClass: 1
Flags: W
HStem: 50.0029 83.333<0 83.333> 466.668 83.333<83.333 166.666>
VStem: 0 83.333<50.0029 133.336> 83.333 83.333<466.668 550.001>
LayerCount: 2
Fore
SplineSet
0 50.0029296875 m 1xe0
 0 133.3359375 l 1
 83.3330078125 133.3359375 l 1
 83.3330078125 50.0029296875 l 1
 0 50.0029296875 l 1xe0
83.3330078125 466.66796875 m 1xd0
 83.3330078125 550.000976562 l 1
 166.666015625 550.000976562 l 1
 166.666015625 466.66796875 l 1
 83.3330078125 466.66796875 l 1xd0
EndSplineSet
Validated: 524289
Substitution2: "Add cartouche line" prefix_c
EndChar

StartChar: quote
Encoding: 31 988883 31
Width: 250
GlyphClass: 1
Flags: W
HStem: 133.336 83.333<83.333 166.666> 383.335 83.333<83.333 166.666>
VStem: 83.333 83.333<133.336 216.669 383.335 466.668>
LayerCount: 2
Fore
SplineSet
83.3330078125 383.334960938 m 1
 83.3330078125 466.66796875 l 1
 166.666015625 466.66796875 l 1
 166.666015625 383.334960938 l 1
 83.3330078125 383.334960938 l 1
83.3330078125 133.3359375 m 1
 83.3330078125 216.668945312 l 1
 166.666015625 216.668945312 l 1
 166.666015625 133.3359375 l 1
 83.3330078125 133.3359375 l 1
EndSplineSet
Validated: 524289
Substitution2: "Add cartouche line" quote_c
EndChar

StartChar: subordination
Encoding: 32 988884 32
Width: 583
GlyphClass: 1
Flags: W
HStem: -116.662 83.332<83.332 166.666 249.998 333.332 416.664 499.998> -33.3301 166.666<166.666 249.998 333.332 416.664 499.998 583.33> 50.0039 83.332<0 166.666 249.998 333.332 416.664 499.998>
VStem: 83.332 83.334<-116.662 -33.3301> 166.666 83.332<-33.3301 50.0039> 249.998 83.334<-116.662 -33.3301> 333.332 83.332<-33.3301 50.0039> 416.664 83.334<-116.662 -33.3301> 499.998 83.332<-33.3301 50.0039>
LayerCount: 2
Fore
SplineSet
0 133.3359375 m 5xa8
 583.330078125 133.3359375 l 5
 583.330078125 77.7805989583 583.330078125 22.2252604167 583.330078125 -33.330078125 c 5x4880
 499.998046875 -33.330078125 l 5x81
 499.998046875 50.00390625 l 5
 416.6640625 50.00390625 l 5
 416.6640625 -33.330078125 l 5xa280
 333.33203125 -33.330078125 l 5xa4
 333.33203125 50.00390625 l 5
 249.998046875 50.00390625 l 5
 249.998046875 -33.330078125 l 5xaa
 166.666015625 -33.330078125 l 5xb0
 166.666015625 50.00390625 l 5
 111.110677083 50.00390625 55.5553385417 50.00390625 0 50.00390625 c 5
 0 133.3359375 l 5xa8
499.998046875 -33.330078125 m 5x81
 499.998046875 -116.662109375 l 5
 416.6640625 -116.662109375 l 5x81
 416.6640625 -33.330078125 l 5x82
 499.998046875 -33.330078125 l 5x81
333.33203125 -33.330078125 m 5x84
 333.33203125 -116.662109375 l 5
 249.998046875 -116.662109375 l 5x84
 249.998046875 -33.330078125 l 5x88
 333.33203125 -33.330078125 l 5x84
166.666015625 -33.330078125 m 5x90
 166.666015625 -116.662109375 l 5
 83.33203125 -116.662109375 l 5
 83.33203125 -33.330078125 l 5
 166.666015625 -33.330078125 l 5x90
EndSplineSet
Validated: 524293
EndChar

StartChar: stop
Encoding: 33 988885 33
Width: 250
GlyphClass: 1
Flags: W
HStem: -116.662 83.332<83.332 166.666> 300.002 83.334<0 83.332> 716.668 83.332<83.332 166.666>
VStem: 0 83.332<300.002 383.336> 83.332 83.334<-116.662 -33.3301 716.668 800> 166.666 83.332<-33.3301 716.668>
CounterMasks: 1 e0
LayerCount: 2
Fore
SplineSet
83.33203125 800 m 5xe8
 166.666015625 800 l 5
 166.666015625 716.66796875 l 5
 83.33203125 716.66796875 l 5
 83.33203125 800 l 5xe8
166.666015625 716.66796875 m 5
 249.998046875 716.66796875 l 5
 249.998046875 -33.330078125 l 5xe4
 166.666015625 -33.330078125 l 5
 166.666015625 716.66796875 l 5
166.666015625 -33.330078125 m 5xe8
 166.666015625 -116.662109375 l 5
 83.33203125 -116.662109375 l 5
 83.33203125 -33.330078125 l 5
 166.666015625 -33.330078125 l 5xe8
0 383.3359375 m 5xf0
 83.33203125 383.3359375 l 5
 83.33203125 300.001953125 l 5
 0 300.001953125 l 5
 0 383.3359375 l 5xf0
EndSplineSet
Validated: 524293
EndChar

StartChar: other_stop
Encoding: 34 988886 34
Width: 250
GlyphClass: 1
Flags: W
HStem: -116.662 83.332<83.332 166.666> 216.67 83.332<0 83.332> 383.336 83.332<0 83.332> 716.668 83.332<83.332 166.666>
VStem: 0 83.332<216.67 300.002 383.336 466.668> 83.332 83.334<-116.662 -33.3301 716.668 800> 166.666 83.332<-33.3301 716.668>
LayerCount: 2
Fore
SplineSet
83.33203125 800 m 5xf4
 166.666015625 800 l 5
 166.666015625 716.66796875 l 5
 83.33203125 716.66796875 l 5
 83.33203125 800 l 5xf4
166.666015625 716.66796875 m 5
 249.998046875 716.66796875 l 5
 249.998046875 -33.330078125 l 5xf2
 166.666015625 -33.330078125 l 5
 166.666015625 716.66796875 l 5
166.666015625 -33.330078125 m 5xf4
 166.666015625 -116.662109375 l 5
 83.33203125 -116.662109375 l 5
 83.33203125 -33.330078125 l 5
 166.666015625 -33.330078125 l 5xf4
0 466.66796875 m 5xf8
 83.33203125 466.66796875 l 5
 83.33203125 383.3359375 l 5
 0 383.3359375 l 5
 0 466.66796875 l 5xf8
0 300.001953125 m 5
 83.33203125 300.001953125 l 5
 83.33203125 216.669921875 l 5
 0 216.669921875 l 5
 0 300.001953125 l 5
EndSplineSet
Validated: 524293
EndChar

StartChar: interrogative_stop
Encoding: 35 988887 35
Width: 333
GlyphClass: 1
Flags: W
HStem: -116.662 83.332<166.666 249.998> 216.67 83.332<83.332 166.666> 300.002 83.334<0 83.332> 383.336 83.332<83.332 166.666> 716.668 83.332<166.666 249.998>
VStem: 0 83.332<300.002 383.336> 83.332 83.334<216.67 300.002 383.336 466.668> 166.666 83.332<-116.662 -33.3301 716.668 800> 249.998 83.334<-33.3301 716.668>
LayerCount: 2
Fore
SplineSet
166.666015625 800 m 5x89
 249.998046875 800 l 5
 249.998046875 716.66796875 l 5
 166.666015625 716.66796875 l 5
 166.666015625 800 l 5x89
249.998046875 716.66796875 m 5
 333.33203125 716.66796875 l 5
 333.33203125 -33.330078125 l 5x8880
 249.998046875 -33.330078125 l 5
 249.998046875 716.66796875 l 5
249.998046875 -33.330078125 m 5x89
 249.998046875 -116.662109375 l 5
 166.666015625 -116.662109375 l 5
 166.666015625 -33.330078125 l 5
 249.998046875 -33.330078125 l 5x89
83.33203125 466.66796875 m 5x9a
 166.666015625 466.66796875 l 5
 166.666015625 383.3359375 l 5x9a
 83.33203125 383.3359375 l 5xac
 83.33203125 466.66796875 l 5x9a
83.33203125 383.3359375 m 5xac
 83.33203125 300.001953125 l 5xcc
 0 300.001953125 l 5
 0 383.3359375 l 5
 83.33203125 383.3359375 l 5xac
83.33203125 300.001953125 m 5
 166.666015625 300.001953125 l 5
 166.666015625 216.669921875 l 5
 83.33203125 216.669921875 l 5xca
 83.33203125 300.001953125 l 5
EndSplineSet
Validated: 524293
EndChar

StartChar: cartouche_start
Encoding: 36 988888 36
Width: 166
GlyphClass: 1
Flags: W
HStem: 550.001 83.333<0 83.333> 633.334 83.333<83.333 166.666> 716.667 83.333<166.666 249.999>
VStem: 0 83.333<550.001 633.334> 83.333 83.333<633.334 716.667> 166.666 83.333<716.667 800>
LayerCount: 2
Fore
SplineSet
0 550.000976562 m 1x90
 0 633.333984375 l 1
 83.3330078125 633.333984375 l 1
 83.3330078125 550.000976562 l 1
 0 550.000976562 l 1x90
83.3330078125 633.333984375 m 1
 83.3330078125 716.666992188 l 1
 166.666015625 716.666992188 l 1
 166.666015625 633.333984375 l 1x48
 83.3330078125 633.333984375 l 1
166.666015625 716.666992188 m 1
 166.666015625 800 l 1
 249.999023438 800 l 1
 249.999023438 716.666992188 l 1x24
 166.666015625 716.666992188 l 1
EndSplineSet
Validated: 524293
Substitution2: "Lengthen cartouche start" cartouche_start_long
EndChar

StartChar: cartouche_end
Encoding: 37 988889 37
Width: 166
GlyphClass: 1
InSpiro: 1
Flags: W
HStem: -116.662 83.332<-83.333 -0.000976562> -33.3301 83.334<-0.000976562 83.333> 633.334 83.334<-0.000976562 83.333> 716.668 83.332<-83.333 -0.000976562>
VStem: -83.333 83.332<-116.662 -33.3301 716.668 800> -0.000976562 83.334<-33.3301 50.0039 633.334 716.668> 83.333 83.332<50.0039 633.334>
LayerCount: 2
Fore
SplineSet
-83.3330078125 800 m 1x18
 -0.0009765625 800 l 1x18
 -0.0009765625 716.66796875 l 1x28
 -83.3330078125 716.66796875 l 1
 -83.3330078125 800 l 1x18
  Spiro
    -83.3333 800 v
    -0.00126875 800 v
    -0.00126875 716.668 v
    -83.3333 716.668 v
    0 0 z
  EndSpiro
-0.0009765625 716.66796875 m 1x28
 83.3330078125 716.66796875 l 1
 83.3330078125 633.333984375 l 1
 -0.0009765625 633.333984375 l 1x24
 -0.0009765625 716.66796875 l 1x28
  Spiro
    -0.00126875 716.668 v
    83.3327 716.668 v
    83.3327 633.334 v
    -0.00126875 633.334 v
    0 0 z
  EndSpiro
83.3330078125 633.333984375 m 1
 166.665039062 633.333984375 l 1
 166.665039062 50.00390625 l 1x62
 83.3330078125 50.00390625 l 1x64
 83.3330078125 633.333984375 l 1
  Spiro
    83.3327 633.334 v
    166.665 633.334 v
    166.665 50.0039 v
    83.3327 50.0039 v
    0 0 z
  EndSpiro
83.3330078125 50.00390625 m 1x44
 83.3330078125 -33.330078125 l 1x44
 -0.0009765625 -33.330078125 l 1x88
 -0.0009765625 50.00390625 l 1
 83.3330078125 50.00390625 l 1x44
  Spiro
    83.3327 50.0039 v
    83.3327 -33.3301 v
    -0.00126875 -33.3301 v
    -0.00126875 50.0039 v
    0 0 z
  EndSpiro
-0.0009765625 -33.330078125 m 1x88
 -0.0009765625 -116.662109375 l 1
 -83.3330078125 -116.662109375 l 1
 -83.3330078125 -33.330078125 l 1
 -0.0009765625 -33.330078125 l 1x88
  Spiro
    -0.00126875 -33.3301 v
    -0.00126875 -116.662 v
    -83.3333 -116.662 v
    -83.3333 -33.3301 v
    0 0 z
  EndSpiro
EndSplineSet
Validated: 524293
EndChar

StartChar: null
Encoding: 38 988890 38
Width: 416
GlyphClass: 1
Flags: W
HStem: -116.662 83.332<249.998 333.332> 133.336 83.334<83.332 166.666> 216.67 83.332<166.666 249.998> 300.002 83.334<83.332 166.666> 383.336 83.332<166.666 249.998> 633.334 83.334<0 83.332> 716.668 83.332<83.332 333.332>
VStem: 0 83.332<633.334 716.668> 83.332 83.334<133.336 216.67 300.002 383.336> 166.666 83.332<216.67 300.002 383.336 466.668> 249.998 83.334<-116.662 -33.3301> 333.332 83.332<-33.3301 716.668>
LayerCount: 2
Fore
SplineSet
83.33203125 800 m 5x8280
 333.33203125 800 l 5
 333.33203125 716.66796875 l 5x8290
 83.33203125 716.66796875 l 5x8510
 83.33203125 800 l 5x8280
333.33203125 716.66796875 m 5
 416.6640625 716.66796875 l 5
 416.6640625 -33.330078125 l 5x8210
 333.33203125 -33.330078125 l 5x8220
 333.33203125 716.66796875 l 5
333.33203125 -33.330078125 m 5x8020
 333.33203125 -116.662109375 l 5
 249.998046875 -116.662109375 l 5
 249.998046875 -33.330078125 l 5
 333.33203125 -33.330078125 l 5x8020
83.33203125 716.66796875 m 5x85
 83.33203125 633.333984375 l 5
 0 633.333984375 l 5
 0 716.66796875 l 5
 83.33203125 716.66796875 l 5x85
166.666015625 466.66796875 m 5x8840
 249.998046875 466.66796875 l 5
 249.998046875 383.3359375 l 5x8840
 166.666015625 383.3359375 l 5x9080
 166.666015625 466.66796875 l 5x8840
166.666015625 383.3359375 m 5x9080
 166.666015625 300.001953125 l 5xa080
 83.33203125 300.001953125 l 5
 83.33203125 383.3359375 l 5
 166.666015625 383.3359375 l 5x9080
166.666015625 300.001953125 m 5
 249.998046875 300.001953125 l 5
 249.998046875 216.669921875 l 5xa040
 166.666015625 216.669921875 l 5xc080
 166.666015625 300.001953125 l 5
166.666015625 216.669921875 m 5xc080
 166.666015625 133.3359375 l 5
 83.33203125 133.3359375 l 5
 83.33203125 216.669921875 l 5
 166.666015625 216.669921875 l 5xc080
EndSplineSet
Validated: 524293
EndChar

StartChar: mamei_c
Encoding: 40 -1 40
Width: 1166
GlyphClass: 2
HStem: -116.662 83.332<916.664 999.998> 50.0039 83.332<250 333.334 416.666 666.666 749.998 999.998> 50.0039 166.666<333.334 416.666 666.666 749.998> 216.67 249.998<416.666 500 749.998 833.332> 383.336 83.332<83.334 166.668> 466.668 83.334<166.668 416.666 500 749.998 833.332 1083.33> 716.668 83.332<0 1166>
VStem: 83.334 83.334<383.336 466.668> 333.334 83.332<133.336 216.67> 416.666 83.334<216.67 466.668> 666.666 83.332<133.336 216.67> 749.998 83.334<216.67 466.668> 916.664 83.334<-116.662 -33.3301> 999.998 83.332<-33.3301 50.0039> 1083.33 83.334<216.67 466.668>
AnchorPoint: "top_left" 208.333 550 basechar 0
AnchorPoint: "top_right" 375 550 basechar 0
AnchorPoint: "bottom_right" 1041.67 50 basechar 0
AnchorPoint: "top_center" 291.667 550 basechar 0
LayerCount: 2
Fore
SplineSet
0 800 m 1x83
 166.666015625 800 999.333984375 800 1166 800 c 1
 1166 716.66796875 l 1
 999.333984375 716.66796875 166.666015625 716.66796875 0 716.66796875 c 1
 -0 744.4453125 0 772.22265625 0 800 c 1x83
EndSplineSet
Refer: 2 988848 N 1 0 0 1 0 0 3
Validated: 524293
Decomposition: "+FrAA"
EndChar

StartChar: mamei_coda_c
Encoding: 41 -1 41
Width: 833
GlyphClass: 2
HStem: 50.0039 83.332<249.998 333.332 416.664 666.664> 133.336 83.334<666.664 749.996> 216.67 249.998<416.664 499.998 749.996 833.33> 383.336 83.332<83.332 166.666> 466.668 83.334<166.666 416.664 499.998 749.996> 716.668 83.332<0 833>
VStem: 83.332 83.334<383.336 466.668> 333.332 83.332<133.336 216.67> 416.664 83.334<216.67 466.668> 666.664 83.332<133.336 216.67> 749.996 83.334<216.67 466.668>
AnchorPoint: "top_left" 208.333 550 basechar 0
AnchorPoint: "top_right" 375 550 basechar 0
AnchorPoint: "bottom_right" 625 50 basechar 0
AnchorPoint: "top_center" 291.667 550 basechar 0
LayerCount: 2
Fore
SplineSet
0 800 m 1x06
 166.666015625 800 666.333984375 800 833 800 c 1
 833 716.66796875 l 1
 666.333984375 716.66796875 166.666015625 716.66796875 0 716.66796875 c 1
 -0 744.4453125 0 772.22265625 0 800 c 1x06
EndSplineSet
Refer: 3 988849 N 1 0 0 1 0 0 3
Validated: 524293
Decomposition: "+FrEA"
EndChar

StartChar: bubue_c
Encoding: 42 -1 42
Width: 500
GlyphClass: 2
HStem: 50.0039 83.332<249.998 333.332> 133.336 83.334<333.332 416.664> 383.336 83.332<83.332 166.666> 466.668 83.334<166.666 416.664> 716.668 83.332<0 499.998>
VStem: 83.332 83.334<383.336 466.668> 249.998 83.334<50.0039 133.336> 333.332 83.332<133.336 216.67> 416.664 83.334<216.67 466.668>
AnchorPoint: "top_left" 208.333 550 basechar 0
AnchorPoint: "top_right" 375 550 basechar 0
AnchorPoint: "bottom_right" 291.667 50 basechar 0
AnchorPoint: "top_center" 291.667 550 basechar 0
LayerCount: 2
Fore
SplineSet
0 800 m 1x0c80
 166.666015625 800 333.33203125 800 499.998046875 800 c 1
 499.998046875 716.66796875 l 1
 333.33203125 716.66796875 166.666015625 716.66796875 0 716.66796875 c 1
 -0 744.4453125 0 772.22265625 0 800 c 1x0c80
EndSplineSet
Refer: 4 988850 N 1 0 0 1 0 0 3
Validated: 524293
Decomposition: "+FrIA"
EndChar

StartChar: pipoq_c
Encoding: 43 -1 43
Width: 500
GlyphClass: 2
HStem: -116.662 83.332<166.666 249.998> -33.3301 83.334<249.998 333.332> 133.336 83.334<166.666 249.998> 216.67 249.998<83.332 166.666 416.664 499.998> 466.668 83.334<166.666 416.664> 716.668 83.332<0 499.998>
VStem: 83.332 83.334<216.67 466.668> 166.666 83.332<-116.662 -33.3301 133.336 216.67> 249.998 83.334<-33.3301 50.0039> 333.332 83.332<50.0039 216.67> 416.664 83.334<216.67 466.668>
AnchorPoint: "top_left" 208.333 550 basechar 0
AnchorPoint: "top_right" 375 550 basechar 0
AnchorPoint: "bottom_right" 375 50 basechar 0
AnchorPoint: "top_center" 291.667 550 basechar 0
LayerCount: 2
Fore
SplineSet
333.33203125 50.00390625 m 1025x4480
0 800 m 1
 166.666015625 800 333.33203125 800 499.998046875 800 c 1
 499.998046875 716.66796875 l 1x0420
 333.33203125 716.66796875 166.666015625 716.66796875 0 716.66796875 c 1
 -0 744.4453125 0 772.22265625 0 800 c 1
EndSplineSet
Refer: 5 988851 N 1 0 0 1 0 0 3
Validated: 524293
Decomposition: "+FrMA"
EndChar

StartChar: fofuaq_c
Encoding: 44 -1 44
Width: 500
GlyphClass: 2
HStem: -116.662 83.332<166.666 249.998> -33.3301 83.334<249.998 333.332> 383.336 83.332<83.332 166.666> 466.668 83.334<166.666 416.664> 716.668 83.332<0 499.998>
VStem: 83.332 83.334<383.336 466.668> 166.666 83.332<-116.662 -33.3301> 249.998 83.334<-33.3301 50.0039> 333.332 83.332<50.0039 216.67> 416.664 83.334<216.67 466.668>
AnchorPoint: "top_left" 208.333 550 basechar 0
AnchorPoint: "top_right" 375 550 basechar 0
AnchorPoint: "bottom_right" 375 50 basechar 0
AnchorPoint: "top_center" 291.667 550 basechar 0
LayerCount: 2
Fore
SplineSet
0 800 m 1x0840
 166.666015625 800 333.33203125 800 499.998046875 800 c 1
 499.998046875 716.66796875 l 1
 333.33203125 716.66796875 166.666015625 716.66796875 0 716.66796875 c 1
 -0 744.4453125 0 772.22265625 0 800 c 1x0840
EndSplineSet
Refer: 6 988852 N 1 0 0 1 0 0 3
Validated: 524293
Decomposition: "+FrQA"
EndChar

StartChar: nanaq_c
Encoding: 45 -1 45
Width: 500
GlyphClass: 2
HStem: 50.0039 83.332<83.332 333.332> 133.336 83.334<333.332 416.664> 383.336 83.332<83.332 166.666> 466.668 83.334<166.666 333.332> 550.002 83.332<416.664 499.998> 633.334 83.334<499.998 583.33> 716.668 83.332<0 499.998>
VStem: 0 83.332<133.336 383.336> 83.332 83.334<383.336 466.668> 333.332 83.332<133.336 216.67> 416.664 83.334<216.67 466.668> 499.998 83.332<633.334 716.668>
AnchorPoint: "top_left" 208.333 550 basechar 0
AnchorPoint: "top_right" 291.667 550 basechar 0
AnchorPoint: "bottom_right" 291.667 50 basechar 0
AnchorPoint: "top_center" 291.667 550 basechar 0
LayerCount: 2
Fore
SplineSet
0 800 m 1x0310
 166.666015625 800 333.33203125 800 499.998046875 800 c 1x0310
 499.998046875 716.66796875 l 1x0510
 333.33203125 716.66796875 166.666015625 716.66796875 0 716.66796875 c 1
 -0 744.4453125 0 772.22265625 0 800 c 1x0310
EndSplineSet
Refer: 7 988853 N 1 0 0 1 0 0 3
Validated: 524293
Decomposition: "+FrUA"
EndChar

StartChar: dudeo_c
Encoding: 46 -1 46
Width: 500
GlyphClass: 2
HStem: 50.0039 83.332<249.998 333.332> 133.336 83.334<333.332 416.664> 300.002 83.334<166.666 333.332> 383.336 83.332<83.332 166.666> 466.668 83.334<166.666 416.664> 716.668 83.332<0 499.998>
VStem: 83.332 83.334<383.336 466.668> 166.666 166.666<300.002 383.336> 249.998 83.334<50.0039 133.336> 333.332 83.332<133.336 216.67> 416.664 83.334<216.67 466.668>
AnchorPoint: "top_left" 208.333 550 basechar 0
AnchorPoint: "top_right" 375 550 basechar 0
AnchorPoint: "bottom_right" 291.667 50 basechar 0
AnchorPoint: "top_center" 291.667 550 basechar 0
LayerCount: 2
Fore
SplineSet
0 800 m 1x0420
 166.666015625 800 333.33203125 800 499.998046875 800 c 1
 499.998046875 716.66796875 l 1
 333.33203125 716.66796875 166.666015625 716.66796875 0 716.66796875 c 1
 -0 744.4453125 0 772.22265625 0 800 c 1x0420
EndSplineSet
Refer: 8 988854 N 1 0 0 1 0 0 3
Validated: 524293
Decomposition: "+FrYA"
EndChar

StartChar: titieq_c
Encoding: 47 -1 47
Width: 583
GlyphClass: 2
HStem: 50.0039 83.332<83.332 333.332> 133.336 83.334<333.332 416.664> 383.336 83.332<83.332 166.666> 466.668 83.334<166.666 333.332> 550.002 83.332<666.664 749.996> 633.334 83.334<499.998 666.664> 716.668 83.332<0 583>
VStem: 0 83.332<133.336 383.336> 83.332 83.334<383.336 466.668> 166.666 166.666<466.668 550.002> 333.332 83.332<133.336 216.67> 416.664 83.334<216.67 633.334> 499.998 166.666<633.334 716.668> 666.664 83.332<550.002 633.334>
AnchorPoint: "top_left" 208.333 550 basechar 0
AnchorPoint: "top_right" 291.667 550 basechar 0
AnchorPoint: "bottom_right" 291.667 50 basechar 0
AnchorPoint: "top_center" 291.667 550 basechar 0
LayerCount: 2
Fore
SplineSet
0 800 m 1x03
 166.666015625 800 416.333984375 800 583 800 c 1x03
 583 716.66796875 l 1x05
 416.333984375 716.66796875 166.666015625 716.66796875 0 716.66796875 c 1
 -0 744.4453125 0 772.22265625 0 800 c 1x03
EndSplineSet
Refer: 9 988855 N 1 0 0 1 0 0 3
Validated: 524293
Decomposition: "+FrcA"
EndChar

StartChar: zozeo_c
Encoding: 48 -1 48
Width: 500
GlyphClass: 2
HStem: -116.662 83.332<166.666 249.998> -33.3301 83.334<249.998 333.332> 133.336 83.334<249.998 333.332> 216.67 83.332<166.666 249.998> 383.336 83.332<83.332 166.666> 466.668 83.334<166.666 416.664> 716.668 83.332<0 499.998>
VStem: 83.332 83.334<-33.3301 216.67 383.336 466.668> 166.666 83.332<-116.662 -33.3301 216.67 300.002> 249.998 83.334<-33.3301 50.0039> 333.332 83.332<50.0039 133.336> 416.664 83.334<216.67 466.668>
AnchorPoint: "bottom_right" 375 50 basechar 0
AnchorPoint: "top_left" 208.333 550 basechar 0
AnchorPoint: "top_right" 375 550 basechar 0
AnchorPoint: "top_center" 291.667 550 basechar 0
LayerCount: 2
Fore
SplineSet
0 800 m 1x0210
 166.666015625 800 333.33203125 800 499.998046875 800 c 1
 499.998046875 716.66796875 l 1
 333.33203125 716.66796875 166.666015625 716.66796875 0 716.66796875 c 1
 -0 744.4453125 0 772.22265625 0 800 c 1x0210
EndSplineSet
Refer: 10 988856 N 1 0 0 1 0 0 3
Validated: 524293
Decomposition: "+FrgA"
EndChar

StartChar: cecoa_c
Encoding: 49 -1 49
Width: 500
GlyphClass: 2
HStem: 50.0039 83.332<83.332 333.332> 133.336 83.334<333.332 416.664> 383.336 83.332<83.332 166.666> 466.668 83.334<166.666 333.332> 716.668 83.332<0 499.998>
VStem: 0 83.332<133.336 383.336> 83.332 83.334<383.336 466.668> 166.666 166.666<466.668 550.002> 333.332 83.332<133.336 216.67>
AnchorPoint: "bottom_right" 291.667 50 basechar 0
AnchorPoint: "top_left" 208.333 550 basechar 0
AnchorPoint: "top_right" 291.667 550 basechar 0
AnchorPoint: "top_center" 291.667 550 basechar 0
LayerCount: 2
Fore
SplineSet
0 800 m 1x0c
 166.666015625 800 333.33203125 800 499.998046875 800 c 1
 499.998046875 716.66796875 l 1
 333.33203125 716.66796875 166.666015625 716.66796875 0 716.66796875 c 1
 -0 744.4453125 0 772.22265625 0 800 c 1x0c
EndSplineSet
Refer: 11 988857 N 1 0 0 1 0 0 3
Validated: 524293
Decomposition: "+FrkA"
EndChar

StartChar: saqseoq_c
Encoding: 50 -1 50
Width: 500
GlyphClass: 2
HStem: 50.0039 83.332<83.332 333.332> 133.336 83.333<333.332 416.665> 383.335 83.333<83.333 166.666> 466.668 83.334<166.666 416.664> 716.668 83.332<0 499.998>
VStem: 0 83.332<133.336 383.336> 83.333 83.333<383.335 466.668> 333.332 83.333<133.336 216.669> 416.664 83.334<216.67 466.668>
AnchorPoint: "bottom_right" 291.667 50 basechar 0
AnchorPoint: "top_left" 208.333 550 basechar 0
AnchorPoint: "top_right" 375 550 basechar 0
AnchorPoint: "top_center" 291.667 550 basechar 0
LayerCount: 2
Fore
SplineSet
0 800 m 1x0e80
 166.666015625 800 333.33203125 800 499.998046875 800 c 1
 499.998046875 716.66796875 l 1
 333.33203125 716.66796875 166.666015625 716.66796875 0 716.66796875 c 1
 -0 744.4453125 0 772.22265625 0 800 c 1x0e80
EndSplineSet
Refer: 12 988858 N 1 0 0 1 0 0 3
Validated: 524293
Decomposition: "+FroA"
EndChar

StartChar: rairua_c
Encoding: 51 -1 51
Width: 833
GlyphClass: 2
HStem: -116.662 83.332<583.33 666.664> 50.0039 83.332<249.998 333.332 416.664 666.664> 383.336 83.332<83.332 166.666> 466.668 83.334<166.666 416.664 499.998 749.996> 716.668 83.332<0 833>
VStem: 83.332 83.334<383.336 466.668> 333.332 83.332<133.336 216.67> 416.664 83.334<216.67 466.668> 583.33 83.334<-116.662 -33.3301> 666.664 83.332<-33.3301 50.0039> 749.996 83.334<216.67 466.668>
AnchorPoint: "bottom_right" 708.333 50 basechar 0
AnchorPoint: "top_right" 375 550 basechar 0
AnchorPoint: "top_left" 208.333 550 basechar 0
AnchorPoint: "top_center" 291.667 550 basechar 0
LayerCount: 2
Fore
SplineSet
0 800 m 1xcc
 166.666015625 800 666.333984375 800 833 800 c 1
 833 716.66796875 l 1
 666.333984375 716.66796875 166.666015625 716.66796875 0 716.66796875 c 1
 -0 744.4453125 0 772.22265625 0 800 c 1xcc
EndSplineSet
Refer: 13 988859 N 1 0 0 1 0 0 3
Validated: 524293
Decomposition: "+FrsA"
EndChar

StartChar: laoliq_c
Encoding: 52 -1 52
Width: 833
GlyphClass: 2
HStem: -116.662 83.332<416.664 499.998> 50.0039 83.332<249.998 333.332 416.664 666.664> 50.0039 166.666<333.332 416.664 666.664 749.996> 383.336 83.332<83.332 166.666> 466.668 83.334<166.666 416.664 499.998 749.996> 716.668 83.332<0 833>
VStem: 83.332 83.334<383.336 466.668> 333.332 83.332<133.336 216.67> 416.664 83.334<-116.662 -33.3301 216.67 466.668> 666.664 166.666<133.336 216.67> 749.996 83.334<216.67 466.668>
AnchorPoint: "bottom_right" 708.333 50 basechar 0
AnchorPoint: "top_right" 375 550 basechar 0
AnchorPoint: "top_left" 208.333 550 basechar 0
AnchorPoint: "top_center" 291.667 550 basechar 0
LayerCount: 2
Fore
SplineSet
0 800 m 1x86
 166.666015625 800 666.333984375 800 833 800 c 1
 833 716.66796875 l 1
 666.333984375 716.66796875 166.666015625 716.66796875 0 716.66796875 c 1
 -0 744.4453125 0 772.22265625 0 800 c 1x86
EndSplineSet
Refer: 14 988860 N 1 0 0 1 0 0 3
Validated: 524293
Decomposition: "+FrwA"
EndChar

StartChar: nhanhoq_c
Encoding: 53 -1 53
Width: 500
GlyphClass: 2
HStem: 50.0039 83.332<249.998 333.332> 133.336 83.334<166.666 249.998 333.332 416.664> 216.67 83.332<249.998 333.332> 383.336 83.332<83.332 166.666> 466.668 83.334<166.666 416.664> 716.668 83.332<0 499.998>
VStem: 83.332 83.334<383.336 466.668> 166.666 83.332<133.336 216.67> 249.998 83.334<50.0039 133.336 216.67 300.002> 333.332 83.332<133.336 216.67> 416.664 83.334<216.67 466.668>
AnchorPoint: "bottom_right" 291.667 50 basechar 0
AnchorPoint: "top_right" 375 550 basechar 0
AnchorPoint: "top_left" 208.333 550 basechar 0
AnchorPoint: "top_center" 291.667 550 basechar 0
LayerCount: 2
Fore
SplineSet
0 800 m 1x0420
 166.666015625 800 333.33203125 800 499.998046875 800 c 1
 499.998046875 716.66796875 l 1
 333.33203125 716.66796875 166.666015625 716.66796875 0 716.66796875 c 1
 -0 744.4453125 0 772.22265625 0 800 c 1x0420
EndSplineSet
Refer: 15 988861 N 1 0 0 1 0 0 3
Validated: 524293
Decomposition: "+Fr0A"
EndChar

StartChar: jujuo_c
Encoding: 54 -1 54
Width: 666
GlyphClass: 2
HStem: 50.0039 83.332<416.664 499.998> 133.336 83.334<499.998 583.33> 383.336 83.332<83.332 166.666 333.332 416.664> 466.668 83.334<166.666 333.332 416.664 583.33> 716.668 83.332<0 666>
VStem: 83.332 83.334<383.336 466.668> 166.666 166.666<466.668 550.002> 333.332 83.332<383.336 466.668> 416.664 83.334<50.0039 133.336> 499.998 83.332<133.336 216.67> 583.33 83.334<216.67 466.668>
AnchorPoint: "bottom_right" 458.333 50 basechar 0
AnchorPoint: "top_left" 208.333 550 basechar 0
AnchorPoint: "top_right" 291.667 550 basechar 0
AnchorPoint: "top_center" 291.667 550 basechar 0
LayerCount: 2
Fore
SplineSet
0 800 m 1xc820
 166.666015625 800 499.333984375 800 666 800 c 1
 666 716.66796875 l 1
 499.333984375 716.66796875 166.666015625 716.66796875 0 716.66796875 c 1
 -0 744.4453125 0 772.22265625 0 800 c 1xc820
EndSplineSet
Refer: 16 988862 N 1 0 0 1 0 0 3
Validated: 524293
Decomposition: "+Fr4A"
EndChar

StartChar: chichao_c
Encoding: 55 -1 55
Width: 500
GlyphClass: 2
HStem: 50.0039 83.332<83.332 333.332> 133.336 83.334<333.332 416.664> 383.336 83.332<83.332 166.666> 466.668 83.334<166.666 416.664> 550.002 83.332<416.664 499.998> 716.668 83.332<0 499.998>
VStem: 0 83.332<133.336 383.336> 83.332 83.334<383.336 466.668> 333.332 83.332<133.336 216.67> 416.664 83.334<550.002 633.334>
AnchorPoint: "bottom_right" 291.667 50 basechar 0
AnchorPoint: "top_left" 208.333 550 basechar 0
AnchorPoint: "top_right" 375 550 basechar 0
AnchorPoint: "top_center" 291.667 550 basechar 0
LayerCount: 2
Fore
SplineSet
0 800 m 1x0640
 166.666015625 800 333.33203125 800 499.998046875 800 c 1
 499.998046875 716.66796875 l 1
 333.33203125 716.66796875 166.666015625 716.66796875 0 716.66796875 c 1
 -0 744.4453125 0 772.22265625 0 800 c 1x0640
EndSplineSet
Refer: 17 988863 N 1 0 0 1 0 0 3
Validated: 524293
Decomposition: "+Fr8A"
EndChar

StartChar: shoshia_c
Encoding: 56 -1 56
Width: 500
GlyphClass: 2
HStem: -199.996 83.334<249.998 333.332> 50.0039 83.332<83.332 249.998> 133.336 83.334<249.998 333.332> 383.336 83.332<83.332 166.666> 466.668 83.334<166.666 416.664> 550.002 83.332<416.664 499.998> 716.668 83.332<0 499.998>
VStem: 0 83.332<133.336 383.336> 83.332 83.334<383.336 466.668> 249.998 83.334<-199.996 -116.662> 333.332 83.332<-116.662 133.336 216.67 300.002> 416.664 83.334<550.002 633.334>
AnchorPoint: "bottom_right" 375 50 basechar 0
AnchorPoint: "top_left" 208.333 550 basechar 0
AnchorPoint: "top_right" 375 550 basechar 0
AnchorPoint: "top_center" 291.667 550 basechar 0
LayerCount: 2
Fore
SplineSet
0 800 m 1x8310
 166.666015625 800 333.33203125 800 499.998046875 800 c 1
 499.998046875 716.66796875 l 1
 333.33203125 716.66796875 166.666015625 716.66796875 0 716.66796875 c 1
 -0 744.4453125 0 772.22265625 0 800 c 1x8310
EndSplineSet
Refer: 18 988864 N 1 0 0 1 0 0 3
Validated: 524293
Decomposition: "+FsAA"
EndChar

StartChar: veva_c
Encoding: 57 -1 57
Width: 416
GlyphClass: 2
HStem: 50.0039 83.332<166.666 249.998> 133.336 83.334<249.998 333.332> 466.668 83.334<166.666 333.332> 466.668 166.666<83.332 166.666> 633.334 83.334<166.666 249.998> 716.668 83.332<0 416>
VStem: 83.332 83.334<550.002 633.334> 166.666 83.332<50.0039 133.336 633.334 716.668> 249.998 83.334<133.336 216.67> 333.332 83.332<216.67 466.668>
AnchorPoint: "bottom_right" 208.333 50 basechar 0
AnchorPoint: "top_right" 291.667 550 basechar 0
AnchorPoint: "top_left" 291.667 550 basechar 0
AnchorPoint: "top_center" 291.667 550 basechar 0
LayerCount: 2
Fore
SplineSet
0 800 m 1x04
 166.666015625 800 249.333984375 800 416 800 c 1
 416 716.66796875 l 1
 249.333984375 716.66796875 166.666015625 716.66796875 0 716.66796875 c 1
 -0 744.4453125 0 772.22265625 0 800 c 1x04
EndSplineSet
Refer: 19 988865 N 1 0 0 1 0 0 3
Validated: 524293
Decomposition: "+FsEA"
EndChar

StartChar: aqaq_c
Encoding: 58 -1 58
Width: 500
GlyphClass: 2
HStem: -199.996 83.334<249.998 333.332> 50.0039 83.332<83.332 249.998> 133.336 83.334<249.998 333.332> 383.336 83.332<83.332 166.666> 466.668 83.334<166.666 249.998> 716.668 83.332<0 499.998>
VStem: 0 83.332<133.336 383.336> 83.332 83.334<383.336 466.668> 166.666 83.332<466.668 550.002> 249.998 83.334<-199.996 -116.662> 333.332 83.332<-116.662 133.336 216.67 300.002>
AnchorPoint: "bottom_right" 375 50 basechar 0
AnchorPoint: "top_right" 208.333 550 basechar 0
AnchorPoint: "top_left" 208.333 550 basechar 0
AnchorPoint: "top_center" 208.333 550 basechar 0
LayerCount: 2
Fore
SplineSet
0 800 m 1x86
 166.666015625 800 333.33203125 800 499.998046875 800 c 1
 499.998046875 716.66796875 l 1
 333.33203125 716.66796875 166.666015625 716.66796875 0 716.66796875 c 1
 -0 744.4453125 0 772.22265625 0 800 c 1x86
EndSplineSet
Refer: 20 988866 N 1 0 0 1 0 0 3
Validated: 524293
Decomposition: "+FsIA"
EndChar

StartChar: gugui_c
Encoding: 59 -1 59
Width: 666
GlyphClass: 2
Flags: W
HStem: 50.0039 83.332<83.332 249.998 333.332 499.998> 133.336 83.334<249.998 333.332 499.998 583.33> 383.336 83.332<83.332 166.666> 466.668 83.334<166.666 249.998> 716.668 83.332<0 666>
VStem: 0 83.332<133.336 383.336> 83.332 83.334<383.336 466.668> 166.666 83.332<466.668 550.002> 249.998 83.334<133.336 216.67> 499.998 83.332<133.336 216.67>
AnchorPoint: "bottom_right" 458.333 50 basechar 0
AnchorPoint: "top_right" 208.333 550 basechar 0
AnchorPoint: "top_left" 208.333 550 basechar 0
AnchorPoint: "top_center" 208.333 550 basechar 0
LayerCount: 2
Fore
SplineSet
0 800 m 1x0c40
 166.666015625 800 499.333984375 800 666 800 c 1
 666 716.66796875 l 1
 499.333984375 716.66796875 166.666015625 716.66796875 0 716.66796875 c 1
 -0 744.4453125 0 772.22265625 0 800 c 1x0c40
EndSplineSet
Refer: 21 988867 N 1 0 0 1 0 0 3
Validated: 524293
Decomposition: "+FsMA"
EndChar

StartChar: kikue_c
Encoding: 60 -1 60
Width: 500
GlyphClass: 2
HStem: -116.662 83.332<166.666 249.998> 50.0039 83.332<83.332 333.332> 133.336 83.334<333.332 416.664> 383.336 83.332<83.332 166.666> 466.668 83.334<166.666 333.332> 716.668 83.332<0 499.998>
VStem: 0 83.332<133.336 383.336> 83.332 83.334<383.336 466.668> 166.666 83.332<-116.662 -33.3301> 166.666 166.666<466.668 550.002> 333.332 83.332<133.336 216.67>
AnchorPoint: "bottom_right" 291.667 50 basechar 0
AnchorPoint: "top_left" 208.333 550 basechar 0
AnchorPoint: "top_right" 291.667 550 basechar 0
AnchorPoint: "top_center" 291.667 550 basechar 0
LayerCount: 2
Fore
SplineSet
0 800 m 1xe6
 166.666015625 800 333.33203125 800 499.998046875 800 c 1
 499.998046875 716.66796875 l 1
 333.33203125 716.66796875 166.666015625 716.66796875 0 716.66796875 c 1
 -0 744.4453125 0 772.22265625 0 800 c 1xe6
EndSplineSet
Refer: 22 988868 N 1 0 0 1 0 0 3
Validated: 524293
Decomposition: "+FsQA"
EndChar

StartChar: oaomo_c
Encoding: 61 -1 61
Width: 250
GlyphClass: 2
HStem: 300.002 83.333<83.333 166.666> 716.668 83.332<0 250>
VStem: 0 250<716.668 800> 83.333 83.333<300.002 383.335>
AnchorPoint: "bottom_right" 125 50 basechar 0
AnchorPoint: "top_right" 125 383.333 basechar 0
AnchorPoint: "top_left" 125 383.333 basechar 0
AnchorPoint: "top_center" 125 383.333 basechar 0
LayerCount: 2
Fore
SplineSet
0 800 m 1xe0
 166.666015625 800 83.333984375 800 250 800 c 1
 250 716.66796875 l 1
 83.333984375 716.66796875 166.666015625 716.66796875 0 716.66796875 c 1
 -0 744.4453125 0 772.22265625 0 800 c 1xe0
EndSplineSet
Refer: 23 988869 N 1 0 0 1 0 0 3
Validated: 524289
Decomposition: "+FsUA"
EndChar

StartChar: hehaq_c
Encoding: 62 -1 62
Width: 500
GlyphClass: 2
HStem: -116.662 83.332<166.666 249.998> -33.3301 83.334<249.998 333.332> 133.336 83.334<249.998 333.332> 216.67 83.332<166.666 249.998> 383.336 83.332<83.332 166.666> 466.668 83.334<166.666 416.664> 716.668 83.332<0 499.998>
VStem: 83.332 83.334<383.336 466.668> 166.666 83.332<-116.662 -33.3301 216.67 300.002> 249.998 83.334<-33.3301 50.0039> 333.332 83.332<50.0039 133.336> 416.664 83.334<216.67 466.668>
AnchorPoint: "bottom_right" 375 50 basechar 0
AnchorPoint: "top_right" 375 550 basechar 0
AnchorPoint: "top_left" 208.333 550 basechar 0
AnchorPoint: "top_center" 291.667 550 basechar 0
LayerCount: 2
Fore
SplineSet
0 800 m 1x0210
 166.666015625 800 333.33203125 800 499.998046875 800 c 1
 499.998046875 716.66796875 l 1
 333.33203125 716.66796875 166.666015625 716.66796875 0 716.66796875 c 1
 -0 744.4453125 0 772.22265625 0 800 c 1x0210
EndSplineSet
Refer: 24 988870 N 1 0 0 1 0 0 3
Validated: 524293
Decomposition: "+FsYA"
EndChar

StartChar: prefix_c
Encoding: 63 -1 63
Width: 166
GlyphClass: 1
HStem: 50.0029 83.333<0 83.333> 466.668 83.333<83.333 166.666> 716.668 83.332<0 166>
VStem: 0 83.333<50.0029 133.336> 0 166<716.668 800> 83.333 83.333<466.668 550.001>
LayerCount: 2
Fore
SplineSet
0 800 m 1xe8
 166.666015625 800 -0.666015625 800 166 800 c 1
 166 716.66796875 l 1
 -0.666015625 716.66796875 166.666015625 716.66796875 0 716.66796875 c 1
 -0 744.4453125 0 772.22265625 0 800 c 1xe8
EndSplineSet
Refer: 30 988882 N 1 0 0 1 0 0 3
Validated: 524289
Decomposition: "+FtIA"
EndChar

StartChar: quote_c
Encoding: 64 -1 64
Width: 250
GlyphClass: 1
Flags: W
HStem: 133.336 83.333<83.333 166.666> 383.335 83.333<83.333 166.666> 716.668 83.332<0 250>
VStem: 0 250<716.668 800> 83.333 83.333<133.336 216.669 383.335 466.668>
LayerCount: 2
Fore
SplineSet
0 800 m 5xf0
 166.666015625 800 83.333984375 800 250 800 c 5
 250 716.66796875 l 5
 83.333984375 716.66796875 166.666015625 716.66796875 0 716.66796875 c 5
 -0 744.4453125 0 772.22265625 0 800 c 5xf0
EndSplineSet
Refer: 31 988883 N 1 0 0 1 0 0 3
Validated: 524289
Decomposition: "+FtMA"
EndChar

StartChar: space_c
Encoding: 65 -1 65
Width: 333
GlyphClass: 1
Flags: W
HStem: 716.668 83.332<0 333>
LayerCount: 2
Fore
SplineSet
0 800 m 1
 166.666015625 800 166.333984375 800 333 800 c 1
 333 716.66796875 l 1
 166.333984375 716.66796875 166.666015625 716.66796875 0 716.66796875 c 1
 -0 744.4453125 0 772.22265625 0 800 c 1
EndSplineSet
Validated: 524289
Decomposition: " "
EndChar

StartChar: rising_tone_left
Encoding: 66 -1 66
Width: 0
GlyphClass: 4
Flags: W
HStem: 383.335 83.333<0 83.333> 466.668 83.333<83.333 166.666> 550.001 83.333<166.666 249.999>
VStem: 0 83.333<383.335 466.668> 83.333 83.333<466.668 550.001> 166.666 83.333<550.001 633.334>
AnchorPoint: "top_left" 375 550 mark 0
LayerCount: 2
Fore
SplineSet
0 383.334960938 m 1x90
 0 466.66796875 l 1
 83.3330078125 466.66796875 l 1
 83.3330078125 383.334960938 l 1
 0 383.334960938 l 1x90
83.3330078125 466.66796875 m 1
 83.3330078125 550.000976562 l 1
 166.666015625 550.000976562 l 1
 166.666015625 466.66796875 l 1x48
 83.3330078125 466.66796875 l 1
166.666015625 550.000976562 m 1
 166.666015625 633.333984375 l 1
 249.999023438 633.333984375 l 1
 249.999023438 550.000976562 l 1x24
 166.666015625 550.000976562 l 1
EndSplineSet
Validated: 524293
EndChar

StartChar: low_glottal_tone_high
Encoding: 67 -1 67
Width: 0
GlyphClass: 4
Flags: W
HStem: 633.334 83.334<0 83.332> 716.668 83.332<83.332 333.332>
VStem: 0 83.332<633.334 716.668> 83.332 83.334<550.002 633.334>
AnchorPoint: "top_left" 125 550 mark 0
LayerCount: 2
Fore
SplineSet
83.33203125 800 m 1x50
 333.33203125 800 l 1
 333.33203125 716.66796875 l 1x50
 83.33203125 716.66796875 l 1xa0
 83.33203125 800 l 1x50
83.33203125 716.66796875 m 1xa0
 83.33203125 633.333984375 l 1
 0 633.333984375 l 1
 0 716.66796875 l 1
 83.33203125 716.66796875 l 1xa0
83.33203125 633.333984375 m 1
 166.666015625 633.333984375 l 1
 166.666015625 550.001953125 l 1
 124.999023438 510.001953125 l 1
 83.33203125 550.001953125 l 1x90
 83.33203125 633.333984375 l 1
EndSplineSet
Validated: 524293
EndChar

StartChar: rising_falling_tone_low
Encoding: 68 -1 68
Width: 0
GlyphClass: 4
Flags: W
HStem: 550.002 83.332<0 83.332> 633.334 83.334<83.332 249.998>
VStem: 0 83.332<550.002 633.334> 83.332 166.666<633.334 716.668> 249.998 83.334<550.002 633.334>
AnchorPoint: "top_center" 291.667 550 mark 0
LayerCount: 2
Fore
SplineSet
83.33203125 716.66796875 m 1x50
 166.666015625 716.66796875 l 1
 249.998046875 716.66796875 l 1
 249.998046875 633.333984375 l 1
 166.666015625 633.333984375 l 1x50
 83.33203125 633.333984375 l 1xa0
 83.33203125 716.66796875 l 1x50
249.998046875 633.333984375 m 1
 333.33203125 633.333984375 l 1x48
 333.33203125 550.001953125 l 1
 291.665039062 510.001953125 l 1
 249.998046875 550.001953125 l 1x88
 249.998046875 633.333984375 l 1
83.33203125 633.333984375 m 1xa0
 83.33203125 550.001953125 l 1
 0 550.001953125 l 1
 0 633.333984375 l 1
 83.33203125 633.333984375 l 1xa0
EndSplineSet
Validated: 524293
EndChar

StartChar: hiatus_diphthong
Encoding: 69 -1 69
Width: 0
GlyphClass: 4
Flags: W
HStem: -199.996 83.334<249.998 333.332> -116.662 83.332<0 249.998 333.332 583.33 666.664 749.996>
VStem: 249.998 83.334<-199.996 -116.662> 583.33 83.334<-199.996 -116.662>
AnchorPoint: "bottom_right" 41.6667 50 mark 0
LayerCount: 2
Fore
SplineSet
0 -33.330078125 m 1x70
 249.998046875 -33.330078125 l 1x70
 249.998046875 -116.662109375 l 1xb0
 0 -116.662109375 l 1
 0 -33.330078125 l 1x70
249.998046875 -116.662109375 m 1xb0
 333.33203125 -116.662109375 l 1
 333.33203125 -199.99609375 l 1
 249.998046875 -199.99609375 l 1
 249.998046875 -116.662109375 l 1xb0
333.33203125 -116.662109375 m 1
 333.33203125 -33.330078125 l 1
 749.99609375 -33.330078125 l 1
 749.99609375 -116.662109375 l 1
 666.6640625 -116.662109375 l 1x70
 666.6640625 -199.99609375 l 1
 583.330078125 -199.99609375 l 1xb0
 583.330078125 -116.662109375 l 1x70
 333.33203125 -116.662109375 l 1
EndSplineSet
Validated: 524293
EndChar

StartChar: cartouche_start_long
Encoding: 70 -1 70
Width: 333
GlyphClass: 1
Flags: W
HStem: 550.002 83.332<0 83.332> 633.334 83.334<83.332 166.666> 716.668 83.332<166.666 333.332>
VStem: 0 83.332<550.002 633.334> 83.332 83.334<633.334 716.668>
LayerCount: 2
Fore
SplineSet
166.666015625 800 m 5x28
 222.221354167 800 277.776692708 800 333.33203125 800 c 5
 333.33203125 716.66796875 l 5x28
 277.776692708 716.66796875 222.221354167 716.66796875 166.666015625 716.66796875 c 5x48
 166.666015625 800 l 5x28
166.666015625 716.66796875 m 5x48
 166.666015625 633.333984375 l 5x48
 83.33203125 633.333984375 l 5x90
 83.33203125 716.66796875 l 5
 166.666015625 716.66796875 l 5x48
83.33203125 633.333984375 m 5x90
 83.33203125 550.001953125 l 5
 0 550.001953125 l 5
 0 633.333984375 l 5
 83.33203125 633.333984375 l 5x90
EndSplineSet
Validated: 524293
EndChar

StartChar: rising_tone_low
Encoding: 71 -1 71
Width: 0
GlyphClass: 4
Flags: W
HStem: 550.001 83.333<0 83.333> 633.334 83.333<83.333 166.666>
VStem: 0 83.333<550.001 633.334> 83.333 83.333<633.334 716.667>
AnchorPoint: "top_left" 208.333 550 mark 0
LayerCount: 2
Fore
SplineSet
0 550.000976562 m 1xa0
 0 633.333984375 l 1
 83.3330078125 633.333984375 l 1
 83.3330078125 550.000976562 l 1
 0 550.000976562 l 1xa0
83.3330078125 633.333984375 m 1
 83.3330078125 716.666992188 l 1
 166.666015625 716.666992188 l 1
 166.666015625 633.333984375 l 1x50
 83.3330078125 633.333984375 l 1
EndSplineSet
Validated: 524293
EndChar
